<svg width="90" height="90" viewBox="0 0 90 90" fill="none" xmlns="http://www.w3.org/2000/svg">
<path d="M84.1306 40.751H5.86967C4.78912 40.751 3.91309 41.627 3.91309 42.7076V77.9249C3.91309 83.3277 8.29288 87.7075 13.6956 87.7075H76.3044C81.7072 87.7075 86.087 83.3277 86.087 77.9249V42.7076C86.087 41.627 85.2111 40.751 84.1306 40.751Z" fill="#FFC107"/>
<path d="M5.86956 21.186H84.1304C87.3721 21.186 90 23.8139 90 27.0556V38.7947C90 42.0364 87.3721 44.6643 84.1304 44.6643H5.86956C2.62791 44.6643 0 42.0364 0 38.7947V27.0556C0 23.8139 2.62791 21.186 5.86956 21.186Z" fill="#FFD54F"/>
<path d="M44.9998 25.0997C35.4939 25.0596 27.1259 18.8234 24.3703 9.72534C23.496 6.61723 25.3067 3.38897 28.4147 2.5144C29.449 2.22331 30.5437 2.22313 31.5782 2.51349C40.6776 5.26778 46.9157 13.6359 46.9564 23.143C46.9564 24.2239 46.0804 25.0997 44.9998 25.0997ZM28.123 8.60242C30.1555 15.3154 35.9567 20.1976 42.9182 21.0538C42.0629 14.0897 37.1786 8.28638 30.4629 6.2546C29.4279 5.99304 28.3767 6.61998 28.1151 7.65504C28.0366 7.96594 28.0366 8.29152 28.1151 8.60242H28.123Z" fill="#D94D1A"/>
<path d="M44.9995 25.0992C43.919 25.0992 43.043 24.2231 43.043 23.1426C43.0837 13.6356 49.3218 5.26739 58.4212 2.5131C61.529 1.63743 64.7582 3.44673 65.6338 6.55429C65.9264 7.59229 65.926 8.69081 65.6329 9.72862C62.8755 18.8264 54.506 25.0612 44.9995 25.0992ZM60.0335 6.1913C59.8651 6.1913 59.6977 6.21643 59.5366 6.26558C52.822 8.29682 47.9382 14.0983 47.0814 21.0607C54.0449 20.2034 59.8466 15.3177 61.8766 8.60167C62.0631 7.94171 61.867 7.23278 61.3679 6.76248C61.0163 6.40297 60.5365 6.19753 60.0335 6.1913Z" fill="#D94D1A"/>
<path d="M33.2608 36.8384C32.1803 36.8404 31.3028 35.9658 31.3008 34.8853C31.2999 34.3644 31.5068 33.8645 31.8756 33.4966L43.6148 21.7575C44.3653 20.9803 45.604 20.9586 46.3813 21.7094C47.1585 22.46 47.1801 23.6986 46.4294 24.476C46.4136 24.4923 46.3977 24.5083 46.3813 24.524L34.6422 36.2632C34.2761 36.6304 33.7794 36.8373 33.2608 36.8384Z" fill="#D94D1A"/>
<path d="M46.956 21.186H43.043V87.7078H46.956V21.186Z" fill="#D94D1A"/>
<path d="M56.739 36.8381C56.2197 36.8391 55.7213 36.6336 55.3537 36.2668L43.6146 24.5277C42.864 23.7505 42.8855 22.5118 43.6627 21.7611C44.4209 21.0289 45.6229 21.0289 46.381 21.7611L58.1201 33.5002C58.883 34.2654 58.8812 35.5043 58.1157 36.2672C57.7503 36.6318 57.2553 36.837 56.739 36.8381Z" fill="#D94D1A"/>
</svg>
