<svg width="60" height="60" viewBox="0 0 60 60" fill="none" xmlns="http://www.w3.org/2000/svg">
<g clip-path="url(#clip0)">
<path d="M5.99269 58.3991C6.31865 58.5894 6.73102 58.6691 7.2306 58.5591C15.31 56.7886 23.293 53.312 31.27 51.1344C31.3678 51.1966 31.4681 51.2561 31.5853 51.306C38.4481 54.1801 45.5019 57.8148 52.6346 59.9145C52.9984 60.0214 53.3387 60.0201 53.6527 59.9547C54.9202 59.9333 56.1636 58.8121 55.46 57.3498C46.6308 39.0052 38.6851 20.2665 31.4384 1.24269C31.1342 0.44266 30.5148 0.0946558 29.8658 0.0648269C29.0488 -0.146525 28.1714 0.140674 27.84 1.19641C21.9649 19.9238 15.9437 38.9365 4.70253 55.2487C3.7633 56.6121 4.78093 58.1216 5.99269 58.3991ZM50.0629 55.0759C44.3368 53.3062 38.6735 50.038 33.1378 47.7199C33.0076 47.6648 32.8802 47.6292 32.7559 47.6027C32.6976 36.2831 32.7365 26.2884 32.6167 14.9688C38.0306 28.509 43.8222 41.8921 50.0629 55.0759ZM28.6771 11.3929C28.8596 23.9584 28.813 35.1997 28.8761 47.7666C22.6904 49.4502 16.4973 52.4221 10.2547 53.876C18.5305 40.7264 23.9022 26.1437 28.6771 11.3929Z" fill="#FB8C2B"/>
</g>
<defs>
<clipPath id="clip0">
<rect width="60" height="60" fill="white"/>
</clipPath>
</defs>
</svg>
