<svg width="208" height="187" viewBox="0 0 208 187" fill="none" xmlns="http://www.w3.org/2000/svg">
<rect x="10" y="10" width="187.919" height="167" fill="#F2B84B" stroke="#F28F38" stroke-width="20"/>
<rect x="187.919" y="96.2095" width="48.0577" height="167.919" transform="rotate(90 187.919 96.2095)" fill="#F28F38"/>
<path d="M58.7823 82.2692C58.4023 82.2692 58.0349 82.1806 57.6803 82.0032C57.3509 81.8006 57.1863 81.5092 57.1863 81.1292V56.0492C57.1863 55.4666 57.3509 55.0612 57.6803 54.8332C58.0096 54.6052 58.3769 54.4912 58.7823 54.4912C59.3649 54.4912 59.8463 54.6686 60.2263 55.0232C60.6063 55.3526 60.9736 55.8466 61.3283 56.5052L67.3323 67.9432L73.3363 56.5052C73.7163 55.8466 74.0963 55.3526 74.4763 55.0232C74.8563 54.6686 75.3249 54.4912 75.8823 54.4912C76.3129 54.4912 76.6803 54.6052 76.9843 54.8332C77.3136 55.0612 77.4783 55.4666 77.4783 56.0492V81.1292C77.4783 81.5092 77.3136 81.8006 76.9843 82.0032C76.6549 82.1806 76.2876 82.2692 75.8823 82.2692C75.4769 82.2692 75.1096 82.1806 74.7803 82.0032C74.4509 81.8006 74.2863 81.5092 74.2863 81.1292V61.1792L68.5103 71.9712C68.1809 72.5539 67.7756 72.8452 67.2943 72.8452C67.0916 72.8452 66.8889 72.7819 66.6863 72.6552C66.4836 72.5286 66.2936 72.3006 66.1163 71.9712L60.3783 61.0272V81.1292C60.3783 81.5092 60.2136 81.8006 59.8843 82.0032C59.5549 82.1806 59.1876 82.2692 58.7823 82.2692ZM90.8071 82.4972C89.2617 82.4972 87.8684 82.2312 86.6271 81.6992C85.4111 81.1419 84.4357 80.2552 83.7011 79.0392C82.9917 77.8232 82.6371 76.2146 82.6371 74.2132V62.7752C82.6371 60.7739 82.9917 59.1652 83.7011 57.9492C84.4357 56.7332 85.4111 55.8592 86.6271 55.3272C87.8684 54.7699 89.2617 54.4912 90.8071 54.4912C92.3524 54.4912 93.7457 54.7699 94.9871 55.3272C96.2284 55.8592 97.2037 56.7332 97.9131 57.9492C98.6477 59.1652 99.0151 60.7739 99.0151 62.7752V74.2132C99.0151 76.2146 98.6477 77.8232 97.9131 79.0392C97.2037 80.2552 96.2284 81.1419 94.9871 81.6992C93.7457 82.2312 92.3524 82.4972 90.8071 82.4972ZM90.8071 79.6092C92.3777 79.6092 93.6064 79.1786 94.4931 78.3172C95.3797 77.4306 95.8231 76.0626 95.8231 74.2132V62.7752C95.8231 60.9259 95.3797 59.5706 94.4931 58.7092C93.6064 57.8226 92.3777 57.3792 90.8071 57.3792C89.2364 57.3792 88.0077 57.8226 87.1211 58.7092C86.2597 59.5706 85.8291 60.9259 85.8291 62.7752V74.2132C85.8291 76.0626 86.2597 77.4306 87.1211 78.3172C88.0077 79.1786 89.2364 79.6092 90.8071 79.6092Z" fill="white"/>
<path d="M63.7983 135.631C62.1516 135.631 60.7203 135.39 59.5043 134.909C58.3136 134.402 57.3889 133.82 56.7303 133.161C56.0716 132.477 55.7423 131.869 55.7423 131.337C55.7423 130.957 55.8816 130.577 56.1603 130.197C56.4643 129.792 56.7936 129.589 57.1483 129.589C57.4523 129.589 57.7436 129.741 58.0223 130.045C58.3263 130.349 58.6936 130.704 59.1243 131.109C59.5803 131.514 60.1629 131.882 60.8723 132.211C61.5816 132.515 62.5063 132.667 63.6463 132.667C65.2423 132.667 66.5216 132.274 67.4843 131.489C68.4469 130.704 68.9283 129.526 68.9283 127.955C68.9283 126.866 68.7003 125.979 68.2443 125.295C67.7883 124.586 67.1803 124.016 66.4203 123.585C65.6856 123.129 64.8749 122.724 63.9883 122.369C63.1016 122.014 62.2149 121.66 61.3283 121.305C60.4416 120.925 59.6183 120.469 58.8583 119.937C58.1236 119.38 57.5283 118.67 57.0723 117.809C56.6416 116.948 56.4263 115.858 56.4263 114.541C56.4263 113.148 56.6796 111.995 57.1863 111.083C57.6929 110.171 58.3643 109.449 59.2003 108.917C60.0363 108.385 60.9356 108.018 61.8983 107.815C62.8863 107.587 63.8489 107.473 64.7863 107.473C65.4703 107.473 66.1923 107.524 66.9523 107.625C67.7123 107.726 68.4343 107.878 69.1183 108.081C69.8023 108.284 70.3596 108.55 70.7903 108.879C71.2209 109.183 71.4363 109.55 71.4363 109.981C71.4363 110.285 71.3096 110.652 71.0563 111.083C70.8283 111.514 70.4989 111.729 70.0683 111.729C69.7896 111.729 69.4476 111.615 69.0423 111.387C68.6369 111.134 68.0923 110.893 67.4083 110.665C66.7496 110.412 65.8756 110.285 64.7863 110.285C63.8489 110.285 62.9876 110.412 62.2023 110.665C61.4169 110.918 60.7836 111.336 60.3023 111.919C59.8463 112.502 59.6183 113.274 59.6183 114.237C59.6183 115.174 59.8336 115.934 60.2643 116.517C60.7203 117.074 61.3156 117.543 62.0503 117.923C62.8103 118.303 63.6336 118.658 64.5203 118.987C65.4069 119.291 66.2936 119.646 67.1803 120.051C68.0669 120.456 68.8776 120.976 69.6123 121.609C70.3723 122.217 70.9803 123.015 71.4363 124.003C71.8923 124.966 72.1203 126.182 72.1203 127.651C72.1203 129.475 71.7529 130.97 71.0183 132.135C70.3089 133.3 69.3336 134.174 68.0923 134.757C66.8509 135.34 65.4196 135.631 63.7983 135.631ZM81.6185 135.327C81.1878 135.327 80.7572 135.2 80.3265 134.947C79.9212 134.694 79.7185 134.377 79.7185 133.997C79.7185 133.896 79.7312 133.794 79.7565 133.693L87.5465 108.423C87.6478 108.043 87.8885 107.764 88.2685 107.587C88.6485 107.41 89.0538 107.321 89.4845 107.321C89.9405 107.321 90.3585 107.422 90.7385 107.625C91.1185 107.802 91.3592 108.068 91.4605 108.423L99.2125 133.693C99.2632 133.794 99.2885 133.883 99.2885 133.959C99.2885 134.339 99.0605 134.668 98.6045 134.947C98.1738 135.2 97.7432 135.327 97.3125 135.327C96.7045 135.327 96.3245 135.086 96.1725 134.605L94.4625 128.943H84.4685L82.8345 134.605C82.7332 134.858 82.5812 135.048 82.3785 135.175C82.1758 135.276 81.9225 135.327 81.6185 135.327ZM85.2285 126.321H93.7405L89.4845 112.033L85.2285 126.321Z" fill="white"/>
<path d="M117.018 135.327C116.638 135.327 116.27 135.238 115.916 135.061C115.586 134.858 115.422 134.567 115.422 134.187V108.651C115.422 108.271 115.586 107.992 115.916 107.815C116.245 107.638 116.612 107.549 117.018 107.549C117.6 107.549 118.069 107.726 118.424 108.081C118.778 108.41 119.133 108.904 119.488 109.563L128.912 128.069V108.651C128.912 108.271 129.076 107.992 129.406 107.815C129.76 107.638 130.128 107.549 130.508 107.549C130.913 107.549 131.28 107.638 131.61 107.815C131.939 107.992 132.104 108.271 132.104 108.651V134.187C132.104 134.567 131.939 134.858 131.61 135.061C131.28 135.238 130.913 135.327 130.508 135.327C130.102 135.327 129.722 135.188 129.368 134.909C129.038 134.63 128.76 134.288 128.532 133.883L118.614 114.769V134.187C118.614 134.567 118.449 134.858 118.12 135.061C117.79 135.238 117.423 135.327 117.018 135.327ZM137.387 135.327C136.956 135.327 136.525 135.2 136.095 134.947C135.689 134.694 135.487 134.377 135.487 133.997C135.487 133.896 135.499 133.794 135.525 133.693L143.315 108.423C143.416 108.043 143.657 107.764 144.037 107.587C144.417 107.41 144.822 107.321 145.253 107.321C145.709 107.321 146.127 107.422 146.507 107.625C146.887 107.802 147.127 108.068 147.229 108.423L154.981 133.693C155.031 133.794 155.057 133.883 155.057 133.959C155.057 134.339 154.829 134.668 154.373 134.947C153.942 135.2 153.511 135.327 153.081 135.327C152.473 135.327 152.093 135.086 151.941 134.605L150.231 128.943H140.237L138.603 134.605C138.501 134.858 138.349 135.048 138.147 135.175C137.944 135.276 137.691 135.327 137.387 135.327ZM140.997 126.321H149.509L145.253 112.033L140.997 126.321Z" fill="white"/>
<path d="M117.996 82.2692C117.641 82.2692 117.312 82.1806 117.008 82.0032C116.704 81.8006 116.552 81.5092 116.552 81.1292V55.5932C116.552 55.2132 116.716 54.9346 117.046 54.7572C117.4 54.5799 117.768 54.4912 118.148 54.4912C118.553 54.4912 118.92 54.5799 119.25 54.7572C119.579 54.9346 119.744 55.2132 119.744 55.5932V79.3812H130.156C130.51 79.3812 130.764 79.5332 130.916 79.8372C131.093 80.1412 131.182 80.4706 131.182 80.8252C131.182 81.1799 131.093 81.5092 130.916 81.8132C130.764 82.1172 130.51 82.2692 130.156 82.2692H117.996ZM144.093 82.2692C143.713 82.2692 143.346 82.1806 142.991 82.0032C142.662 81.8006 142.497 81.5092 142.497 81.1292V55.5932C142.497 55.2132 142.662 54.9346 142.991 54.7572C143.346 54.5799 143.713 54.4912 144.093 54.4912C144.498 54.4912 144.866 54.5799 145.195 54.7572C145.524 54.9346 145.689 55.2132 145.689 55.5932V81.1292C145.689 81.5092 145.524 81.8006 145.195 82.0032C144.866 82.1806 144.498 82.2692 144.093 82.2692Z" fill="white"/>
</svg>
