<svg width="335" height="151" viewBox="0 0 335 151" fill="none" xmlns="http://www.w3.org/2000/svg">
<path d="M3.02678 57.0866C1.06925 106.091 107.09 106.091 107.09 106.091H182.068L166.118 143.48L219.551 106.091C219.551 106.091 332 100.283 332 57.0866C332 8.08197 231.901 3 173.683 3C115.464 3 4.6218 17.1569 3.02678 57.0866Z" fill="#F8F5E4" stroke="#060000" stroke-opacity="0.7" stroke-width="5"/>
<path d="M45.2048 71.1143C45.0915 71.1143 44.9668 71.069 44.8308 70.9783C44.7175 70.9103 44.6155 70.8083 44.5248 70.6723C44.3435 70.5363 44.2528 70.3323 44.2528 70.0603C44.2528 69.539 44.6382 68.1676 45.4088 65.9463C45.5675 65.3116 45.7375 64.6996 45.9188 64.1103C46.0775 63.7023 46.1568 63.3963 46.1568 63.1923C46.1568 63.011 46.1795 62.807 46.2248 62.5803C46.2928 62.331 46.3268 62.161 46.3268 62.0703C46.5988 62.0703 46.8482 61.6056 47.0748 60.6763C47.1655 60.3363 47.2448 60.053 47.3128 59.8263C47.3808 59.577 47.4262 59.3843 47.4488 59.2483C47.4942 59.1803 47.5395 59.0783 47.5848 58.9423C47.6528 58.8063 47.7095 58.6816 47.7548 58.5683C47.9362 58.0243 48.1515 57.503 48.4008 57.0043C48.6728 55.9843 48.9902 54.919 49.3528 53.8083C49.7382 52.675 50.0555 51.8363 50.3048 51.2923L50.7128 50.2723C50.7355 50.2043 50.7808 50.0796 50.8488 49.8983C50.9395 49.6943 50.9848 49.547 50.9848 49.4563C50.9848 49.3656 50.9508 49.2976 50.8828 49.2523C50.7695 49.1843 50.7128 49.071 50.7128 48.9123C50.7128 48.6176 50.9848 48.2323 51.5288 47.7563C51.8008 47.4163 52.0275 47.201 52.2088 47.1103C52.4128 46.997 52.6848 46.9403 53.0248 46.9403L54.1128 47.0083C54.3848 47.031 55.1102 47.0423 56.2888 47.0423C56.5382 47.1556 56.8328 47.269 57.1728 47.3823C57.8528 47.609 58.1928 47.7676 58.1928 47.8583C58.1928 47.9716 58.2268 48.051 58.2948 48.0963C58.3855 48.1416 58.5102 48.1756 58.6688 48.1983C58.8955 48.1983 59.2468 48.459 59.7228 48.9803C60.2215 49.479 60.5955 50.0003 60.8448 50.5443C61.0035 50.907 61.1168 51.213 61.1848 51.4623C61.2755 51.689 61.3208 51.961 61.3208 52.2783C61.3208 52.6183 61.2982 52.8903 61.2528 53.0943C61.2075 53.457 61.1508 53.8083 61.0828 54.1483C61.0148 54.4883 60.9355 54.7036 60.8448 54.7943C60.4822 55.0663 60.3008 55.3043 60.3008 55.5083C60.3008 55.6896 60.0062 56.1656 59.4168 56.9363C58.8502 57.707 58.3062 58.3416 57.7848 58.8403C57.1955 59.5203 56.4928 60.121 55.6768 60.6423C53.0022 61.8436 51.1322 62.4216 50.0668 62.3763C49.3415 62.4896 48.8995 62.5916 48.7408 62.6823C48.5822 62.7503 48.4575 62.9316 48.3668 63.2263C48.2535 63.521 48.1402 63.827 48.0268 64.1443C47.9362 64.4616 47.8908 64.6656 47.8908 64.7563C47.7548 65.0056 47.4488 65.8443 46.9728 67.2723C46.5195 68.7003 46.2135 69.7656 46.0548 70.4683C45.9642 70.763 45.8622 70.9443 45.7488 71.0123C45.6355 71.0803 45.4542 71.1143 45.2048 71.1143ZM49.4208 60.5743C49.4662 60.6196 49.6135 60.6423 49.8628 60.6423C50.1575 60.6423 50.5428 60.597 51.0188 60.5063C51.5175 60.4156 51.9935 60.2796 52.4468 60.0983C53.2628 59.8263 54.1695 59.3843 55.1668 58.7723C55.4615 58.5683 55.8242 58.2623 56.2548 57.8543C56.7082 57.4463 57.1388 56.9816 57.5468 56.4603C57.6828 56.2336 57.9548 55.701 58.3628 54.8623C58.5442 54.545 58.7142 54.137 58.8728 53.6383C59.0542 53.1396 59.1448 52.6976 59.1448 52.3123C59.1448 52.131 59.1335 51.995 59.1108 51.9043C58.9975 51.315 58.6915 50.771 58.1928 50.2723C57.7168 49.751 57.1615 49.3996 56.5268 49.2183C56.0508 49.1276 55.6202 49.0823 55.2348 49.0823C54.9402 49.0823 54.6002 49.1163 54.2148 49.1843C53.8522 49.2976 53.5802 49.4563 53.3988 49.6603C53.2402 49.8643 53.0248 50.295 52.7528 50.9523C52.2315 51.9496 51.7555 53.0376 51.3248 54.2163C50.9168 55.735 50.5088 56.993 50.1008 57.9903C49.6928 58.9876 49.4548 59.5656 49.3868 59.7243V59.8603C49.3868 59.9963 49.3755 60.1323 49.3528 60.2683C49.3302 60.4043 49.3528 60.5063 49.4208 60.5743ZM61.3663 71.2163C61.1623 71.1256 60.9243 70.9443 60.6523 70.6723C60.1536 70.355 59.7796 69.9923 59.5303 69.5843C59.2809 69.1763 59.1449 68.621 59.1223 67.9183C59.1223 67.737 59.2696 67.4876 59.5643 67.1703C59.8816 66.8303 60.2216 66.6603 60.5843 66.6603C60.7883 66.6603 60.9923 66.7283 61.1963 66.8643C60.9923 67.5216 60.8903 67.9636 60.8903 68.1903C60.8903 68.485 60.9923 68.723 61.1963 68.9043C61.4229 69.063 61.8083 69.199 62.3523 69.3123C62.6696 69.3803 62.9643 69.4143 63.2363 69.4143C63.5989 69.4143 64.0976 69.3576 64.7323 69.2443C65.3669 69.199 65.8543 69.1536 66.1943 69.1083C66.5343 69.0403 66.7836 68.9383 66.9423 68.8023C67.5996 68.5303 68.1889 68.213 68.7103 67.8503C69.2316 67.465 69.5829 67.0796 69.7643 66.6943C69.9909 66.3996 70.1269 66.1616 70.1723 65.9803C70.2176 65.799 70.2403 65.5836 70.2403 65.3343C70.2403 65.085 70.2403 64.9036 70.2403 64.7903C70.2176 64.065 70.1609 63.5663 70.0703 63.2943C69.9796 62.9996 69.6849 62.331 69.1863 61.2883C69.1863 61.1523 68.9709 60.8463 68.5403 60.3703C68.1096 59.8716 67.8263 59.543 67.6903 59.3843C67.3956 58.7723 67.1463 58.2963 66.9423 57.9563C66.7609 57.6163 66.5343 57.3556 66.2623 57.1743C66.1943 57.0836 66.1036 56.891 65.9903 56.5963C65.8769 56.3016 65.7976 56.143 65.7523 56.1203C65.7296 56.0976 65.6956 56.041 65.6503 55.9503C65.6049 55.837 65.5483 55.701 65.4803 55.5423C65.2989 55.1343 65.2083 54.7036 65.2083 54.2503C65.2083 53.6156 65.3443 52.9583 65.6163 52.2783C65.9109 51.5756 66.3303 50.9183 66.8743 50.3063C67.1236 49.8756 67.5769 49.3543 68.2343 48.7423C68.9143 48.1076 69.3223 47.7903 69.4583 47.7903C69.5036 47.7676 69.5943 47.7336 69.7303 47.6883C69.8889 47.6203 70.0589 47.5183 70.2403 47.3823C70.4443 47.337 70.7276 47.2463 71.0903 47.1103C71.4529 46.9516 71.7589 46.8723 72.0083 46.8723C72.3483 46.759 72.6203 46.6796 72.8243 46.6343C73.0509 46.5663 73.2776 46.5323 73.5043 46.5323L74.4903 46.6003C75.6236 46.895 76.3263 47.4843 76.5983 48.3683L76.8363 49.8303L75.4083 50.8843C75.1363 50.975 74.7963 51.0203 74.3883 51.0203C74.1163 51.0203 73.8783 51.009 73.6743 50.9863C73.4703 50.9636 73.3343 50.941 73.2663 50.9183C73.1529 50.9183 73.0963 50.8616 73.0963 50.7483C73.0963 50.6803 73.1189 50.6236 73.1643 50.5783C73.2323 50.533 73.3003 50.5103 73.3683 50.5103C73.4363 50.4423 73.5496 50.329 73.7083 50.1703C73.8669 49.989 74.0256 49.819 74.1843 49.6603C74.3429 49.411 74.4223 49.207 74.4223 49.0483C74.4223 48.935 74.3769 48.867 74.2863 48.8443C74.2183 48.799 74.0823 48.7763 73.8783 48.7763L72.9943 48.8443C72.1783 48.8896 71.4076 49.105 70.6823 49.4903C69.9569 49.853 69.3563 50.3856 68.8803 51.0883C68.3363 51.5643 67.9283 52.063 67.6563 52.5843C67.3843 53.1056 67.2483 53.5703 67.2483 53.9783C67.3616 54.5223 67.5543 55.0436 67.8263 55.5423L69.7643 58.2283C70.2856 58.8856 70.5463 59.2596 70.5463 59.3503V59.5203C70.5916 59.5203 70.7729 59.8263 71.0903 60.4383C71.4076 61.0503 71.5663 61.413 71.5663 61.5263L71.8723 62.2403C71.9856 62.3536 72.0989 62.8296 72.2123 63.6683C72.3256 64.507 72.3823 65.153 72.3823 65.6063C72.3596 65.9916 72.2123 66.4223 71.9403 66.8983C71.6909 67.3743 71.3736 67.8163 70.9883 68.2243C70.5123 68.723 69.8209 69.2783 68.9143 69.8903C68.0076 70.5023 67.2256 70.8876 66.5683 71.0463C66.1829 71.1823 65.6729 71.2956 65.0383 71.3863C64.4263 71.477 63.8143 71.5223 63.2023 71.5223C62.1823 71.5223 61.5703 71.4203 61.3663 71.2163ZM83.6801 70.1963C83.1814 70.3096 82.7394 70.3663 82.3541 70.3663C81.0848 70.3663 79.8948 70.015 78.7841 69.3123C77.6961 68.587 76.9821 67.6576 76.6421 66.5243C76.3701 65.867 76.3134 65.5383 76.4721 65.5383C76.5854 65.5383 76.6421 65.5043 76.6421 65.4363C76.6421 65.3683 76.5968 65.289 76.5061 65.1983C76.4608 65.153 76.4381 65.0283 76.4381 64.8243C76.4381 64.6203 76.4721 64.4163 76.5401 64.2123C76.6308 64.0083 76.7328 63.9063 76.8461 63.9063C77.0728 63.9063 77.3221 64.0196 77.5941 64.2463C77.8661 64.473 77.9341 64.6316 77.7981 64.7223C77.8208 64.7903 77.8661 64.9376 77.9341 65.1643C78.0021 65.391 78.0248 65.6403 78.0021 65.9123C78.0474 66.003 78.1381 66.1616 78.2741 66.3883C78.4101 66.615 78.5574 66.8076 78.7161 66.9663C78.8748 67.125 79.0901 67.2836 79.3621 67.4423C79.7474 67.7143 80.0534 67.907 80.2801 68.0203C80.5294 68.111 80.9261 68.1563 81.4701 68.1563C81.9234 68.1563 82.2748 68.0543 82.5241 67.8503C82.7734 67.6463 83.1134 67.2383 83.5441 66.6263C83.6348 65.9916 83.3968 64.7903 82.8301 63.0223C82.2861 61.2316 81.5494 59.2823 80.6201 57.1743C80.4841 56.9023 80.3708 56.653 80.2801 56.4263C80.1894 56.1996 80.1328 56.0523 80.1101 55.9843C80.1328 55.871 80.1441 55.701 80.1441 55.4743C80.1441 55.2476 80.1101 55.021 80.0421 54.7943C79.9288 54.681 79.8494 54.2843 79.8041 53.6043L79.7361 52.8563C79.7814 52.267 79.8268 51.859 79.8721 51.6323C79.9401 51.383 80.0874 51.0883 80.3141 50.7483C80.9941 49.751 81.8101 48.9463 82.7621 48.3343C83.7368 47.6996 84.9381 47.269 86.3661 47.0423C86.6608 46.9743 87.0688 46.9403 87.5901 46.9403C88.1341 46.9403 88.6781 46.9856 89.2221 47.0763C89.7661 47.1443 90.1401 47.2463 90.3441 47.3823C90.8654 47.6316 91.2848 47.915 91.6021 48.2323C91.9194 48.5496 92.2028 48.9236 92.4521 49.3543C92.6108 49.6716 92.6901 49.9096 92.6901 50.0683C92.6901 50.2043 92.5881 50.4423 92.3841 50.7823C92.1121 51.077 91.6134 51.4283 90.8881 51.8363C90.1628 52.2443 89.5168 52.4936 88.9501 52.5843C88.7914 52.6523 88.6781 52.6976 88.6101 52.7203C88.5648 52.7203 88.5421 52.675 88.5421 52.5843C88.6101 52.471 88.6328 52.3803 88.6101 52.3123C88.5874 52.2443 88.5648 52.199 88.5421 52.1763C88.3608 52.1763 88.2701 52.131 88.2701 52.0403C88.2701 51.927 88.3608 51.7456 88.5421 51.4963C88.7461 51.247 88.9841 50.9636 89.2561 50.6463C89.7094 50.1476 89.9814 49.8303 90.0721 49.6943C90.1628 49.5356 90.1628 49.3996 90.0721 49.2863C89.8454 49.1276 89.2221 49.0483 88.2021 49.0483C87.6128 49.0483 87.1141 49.0823 86.7061 49.1503C85.5274 49.4903 84.5188 49.989 83.6801 50.6463C82.8414 51.281 82.3428 51.9723 82.1841 52.7203C82.0254 53.083 81.9461 53.3663 81.9461 53.5703C81.9461 53.865 82.0481 54.3183 82.2521 54.9303C82.2974 55.497 82.3428 55.9503 82.3881 56.2903C82.4561 56.6076 82.4901 56.7776 82.4901 56.8003C82.4901 56.8683 82.5128 57.0043 82.5581 57.2083C82.6034 57.4123 82.6374 57.707 82.6601 58.0923C82.8188 58.5683 83.2381 59.067 83.9181 59.5883C83.9861 60.155 84.0881 60.6423 84.2241 61.0503C84.3148 61.413 84.3714 61.685 84.3941 61.8663C84.8474 62.8183 85.1988 63.793 85.4481 64.7903C85.7201 65.7876 85.8561 66.5696 85.8561 67.1363C85.8561 67.5216 85.7994 67.7143 85.6861 67.7143C85.6634 67.7143 85.6521 67.7483 85.6521 67.8163C85.6521 67.8843 85.6634 67.9183 85.6861 67.9183C85.6861 68.145 85.4481 68.5076 84.9721 69.0063C84.4961 69.4823 84.0654 69.879 83.6801 70.1963ZM93.4833 67.7143C93.0526 67.873 92.7239 67.9523 92.4973 67.9523C92.1799 67.9523 91.8399 67.8163 91.4773 67.5443C91.1599 67.227 91.0013 66.9096 91.0013 66.5923C91.0013 66.0936 91.3866 65.5836 92.1573 65.0623C92.6106 64.7903 92.9393 64.6543 93.1433 64.6543C93.2566 64.6543 93.5286 64.7336 93.9593 64.8923C94.5713 65.255 94.8773 65.6743 94.8773 66.1503C94.8773 66.4223 94.7526 66.6943 94.5033 66.9663C94.2766 67.2383 93.9366 67.4876 93.4833 67.7143ZM100.223 67.7143C99.7928 67.873 99.4642 67.9523 99.2375 67.9523C98.9202 67.9523 98.5802 67.8163 98.2175 67.5443C97.9002 67.227 97.7415 66.9096 97.7415 66.5923C97.7415 66.0936 98.1268 65.5836 98.8975 65.0623C99.3508 64.7903 99.6795 64.6543 99.8835 64.6543C99.9968 64.6543 100.269 64.7336 100.699 64.8923C101.311 65.255 101.617 65.6743 101.617 66.1503C101.617 66.4223 101.493 66.6943 101.243 66.9663C101.017 67.2383 100.677 67.4876 100.223 67.7143ZM126.928 71.2843C126.633 71.307 126.361 71.239 126.112 71.0803C125.885 70.9443 125.727 70.763 125.636 70.5363C125.5 70.4003 125.353 70.1963 125.194 69.9243C125.035 69.6523 124.933 69.3916 124.888 69.1423C124.797 68.0543 124.752 67.261 124.752 66.7623C124.752 66.1276 124.786 65.2663 124.854 64.1783C124.922 63.1356 125.047 62.161 125.228 61.2543C125.432 60.325 125.704 59.1916 126.044 57.8543C126.18 57.4236 126.282 57.061 126.35 56.7663C126.418 56.449 126.418 56.2903 126.35 56.2903C126.237 56.313 126.033 56.6076 125.738 57.1743C125.443 57.7183 125.149 58.3076 124.854 58.9423C124.718 59.1916 124.582 59.4636 124.446 59.7583C124.333 60.0303 124.208 60.291 124.072 60.5403C123.437 61.9456 122.27 64.0763 120.57 66.9323C120.366 67.1816 120.083 67.5783 119.72 68.1223C119.017 69.1876 118.439 69.9243 117.986 70.3323C117.419 70.8763 116.853 71.1483 116.286 71.1483C115.878 71.1483 115.538 71.0123 115.266 70.7403C114.971 70.3776 114.824 70.0263 114.824 69.6863C114.824 69.5956 114.847 69.437 114.892 69.2103C114.824 68.6436 114.881 67.4876 115.062 65.7423C115.266 63.9743 115.47 62.501 115.674 61.3223C115.833 60.2343 116.184 58.4436 116.728 55.9503L117.476 52.2783C117.612 51.9383 117.827 51.2583 118.122 50.2383L118.428 49.1163C118.451 48.7083 118.541 48.4136 118.7 48.2323C118.859 48.0283 119.051 47.9263 119.278 47.9263C119.595 47.9263 119.867 48.0736 120.094 48.3683C120.457 48.7763 120.638 49.2636 120.638 49.8303C120.638 50.2836 120.536 50.7483 120.332 51.2243C119.312 53.7176 118.496 57.0043 117.884 61.0843C117.657 62.4216 117.442 63.861 117.238 65.4023C117.057 66.921 117.011 67.6916 117.102 67.7143C117.283 67.7596 117.533 67.6236 117.85 67.3063C118.167 66.9663 118.451 66.5243 118.7 65.9803C120.241 63.419 122.043 60.1323 124.106 56.1203C124.151 56.0523 124.65 55.123 125.602 53.3323L126.418 51.8023C126.486 51.6663 126.565 51.519 126.656 51.3603C126.769 51.179 126.883 50.9976 126.996 50.8163C127.495 49.887 127.88 49.1956 128.152 48.7423C128.447 48.289 128.673 48.0283 128.832 47.9603C129.217 47.983 129.535 48.085 129.784 48.2663C130.033 48.425 130.249 48.7083 130.43 49.1163C130.453 49.2296 130.43 49.4223 130.362 49.6943C130.317 49.9436 130.249 50.1816 130.158 50.4083C130.113 50.5443 129.999 50.8843 129.818 51.4283C129.659 51.9723 129.523 52.5163 129.41 53.0603C128.979 54.1936 128.662 55.293 128.458 56.3583C128.299 57.1743 128.129 57.9676 127.948 58.7383C127.563 60.4836 127.268 61.923 127.064 63.0563C126.883 64.1896 126.781 65.2096 126.758 66.1163C126.735 67.2723 126.803 68.0543 126.962 68.4623C127.03 68.689 127.2 68.8023 127.472 68.8023C127.676 68.8023 127.846 68.723 127.982 68.5643C128.639 67.703 129.183 66.9436 129.614 66.2863C130.045 65.629 130.509 64.847 131.008 63.9403C132.391 61.3563 134.034 57.809 135.938 53.2983C136.663 51.213 137.151 49.853 137.4 49.2183C137.672 48.5836 137.978 48.1756 138.318 47.9943C138.454 47.9036 138.59 47.8583 138.726 47.8583C138.975 47.8583 139.202 47.949 139.406 48.1303C139.497 48.221 139.576 48.3683 139.644 48.5723C139.735 48.7763 139.769 49.003 139.746 49.2523C139.519 50.0456 138.987 51.5303 138.148 53.7063C137.332 55.8596 136.697 57.4236 136.244 58.3983C136.153 58.557 135.972 58.863 135.7 59.3163C135.655 59.3843 135.553 59.5543 135.394 59.8263C135.258 60.0756 135.19 60.2683 135.19 60.4043C135.19 60.631 134.589 61.821 133.388 63.9743C132.209 66.105 131.337 67.533 130.77 68.2583C130.022 69.2103 129.263 69.947 128.492 70.4683C127.744 71.0123 127.223 71.2843 126.928 71.2843ZM136.149 70.6043C135.899 70.4683 135.718 70.3436 135.605 70.2303C135.514 70.117 135.469 69.9696 135.469 69.7883C135.469 69.5616 135.559 69.2443 135.741 68.8363C135.945 68.4056 136.285 67.737 136.761 66.8303C136.897 66.5356 137.157 66.0143 137.543 65.2663C138.857 62.7503 139.515 61.379 139.515 61.1523C139.492 61.107 139.481 61.039 139.481 60.9483C139.481 60.7216 139.662 60.5176 140.025 60.3363C140.546 59.815 140.977 59.2596 141.317 58.6703C141.543 58.1716 141.849 57.5823 142.235 56.9023C142.62 56.1996 143.096 55.3723 143.663 54.4203C143.935 53.9443 144.343 53.253 144.887 52.3463C145.725 50.8503 146.802 49.2183 148.117 47.4503C148.638 46.7476 149.069 46.4076 149.409 46.4303C149.839 46.4303 150.315 46.6343 150.837 47.0423C151.381 47.4276 151.755 47.8696 151.959 48.3683C152.049 48.527 152.095 48.867 152.095 49.3883C152.095 50.091 152.015 51.281 151.857 52.9583C151.811 53.253 151.766 53.7176 151.721 54.3523C151.653 55.3723 151.551 56.4603 151.415 57.6163C151.165 60.155 150.984 62.1383 150.871 63.5663C150.757 64.9943 150.701 66.3316 150.701 67.5783C150.701 68.213 150.712 68.6776 150.735 68.9723V69.2103L150.701 69.9923C150.565 70.1283 150.361 70.1963 150.089 70.1963C149.771 70.1963 149.465 70.117 149.171 69.9583C148.876 69.8223 148.706 69.6523 148.661 69.4483C148.638 69.4256 148.604 69.403 148.559 69.3803C148.513 69.3576 148.491 69.2556 148.491 69.0743L148.525 68.3263L148.627 66.4223L148.797 60.9143L148.355 60.9483C147.901 60.9483 146.893 61.039 145.329 61.2203C143.765 61.4016 142.79 61.549 142.405 61.6623C142.201 61.6623 141.951 61.7983 141.657 62.0703C141.362 62.3423 141.101 62.6936 140.875 63.1243C140.807 63.351 140.648 63.6796 140.399 64.1103C140.149 64.5183 140.025 64.7563 140.025 64.8243C139.889 64.915 139.764 65.0396 139.651 65.1983C139.56 65.3343 139.503 65.425 139.481 65.4703C139.481 65.7196 139.243 66.3543 138.767 67.3743C138.313 68.3943 137.86 69.2443 137.407 69.9243L136.693 71.0123L136.149 70.6043ZM143.187 59.6563C143.323 59.6336 143.617 59.5883 144.071 59.5203C144.524 59.4296 144.932 59.373 145.295 59.3503C146.927 58.965 147.924 58.7723 148.287 58.7723C148.445 58.7723 148.593 58.8063 148.729 58.8743C148.797 58.965 148.865 59.033 148.933 59.0783C149.023 59.101 149.08 59.1123 149.103 59.1123C149.148 58.9763 149.284 57.7523 149.511 55.4403C149.76 53.1056 149.896 51.553 149.919 50.7823L150.021 49.0823C149.885 49.0823 149.59 49.343 149.137 49.8643C148.683 50.3856 148.173 51.0656 147.607 51.9043C147.063 52.7203 146.575 53.559 146.145 54.4203C145.918 54.8283 145.691 55.2136 145.465 55.5763C145.261 55.9163 145.113 56.0863 145.023 56.0863C144.864 56.245 144.49 56.857 143.901 57.9223C143.311 58.9876 143.073 59.5656 143.187 59.6563ZM155.399 70.8083C155.263 70.9216 155.127 71.0236 154.991 71.1143C154.878 71.2276 154.798 71.2843 154.753 71.2843C154.708 71.2843 154.64 71.2276 154.549 71.1143C154.481 71.0236 154.39 70.8876 154.277 70.7063C154.073 70.5703 153.937 70.4343 153.869 70.2983C153.801 70.1623 153.756 70.015 153.733 69.8563C153.71 69.7203 153.699 69.6183 153.699 69.5503C153.722 69.097 154.039 67.873 154.651 65.8783C155.263 63.861 155.818 62.2403 156.317 61.0163L156.997 59.2143C157.156 58.829 157.518 58.0696 158.085 56.9363C158.652 55.803 159.037 55.0436 159.241 54.6583C159.173 54.545 159.468 53.831 160.125 52.5163C160.805 51.179 161.417 50.0456 161.961 49.1163C162.278 48.6176 162.516 48.2663 162.675 48.0623C162.856 47.8583 163.026 47.7563 163.185 47.7563C163.23 47.7563 163.321 47.779 163.457 47.8243L163.729 47.7903C164.069 47.7903 164.409 47.847 164.749 47.9603C165.089 48.0736 165.27 48.221 165.293 48.4023C165.316 48.425 165.327 48.527 165.327 48.7083C165.327 49.071 165.282 49.479 165.191 49.9323C164.896 51.7003 164.749 53.3776 164.749 54.9643C164.749 56.2563 164.862 58.2283 165.089 60.8803L165.803 64.6883L166.415 63.5663C166.71 63.0223 167.106 62.1723 167.605 61.0163L167.979 60.1323C168.138 59.7016 168.319 59.2596 168.523 58.8063C168.727 58.3303 168.863 58.0243 168.931 57.8883C169.248 57.503 169.554 56.8456 169.849 55.9163C170.166 54.987 170.359 54.4316 170.427 54.2503C170.45 54.1596 170.552 53.7743 170.733 53.0943C170.937 52.3916 171.141 51.9496 171.345 51.7683C171.322 51.587 171.402 51.111 171.583 50.3403C171.764 49.5696 171.912 49.003 172.025 48.6403C172.048 48.6176 172.104 48.5496 172.195 48.4363C172.286 48.323 172.376 48.153 172.467 47.9263L173.419 47.6543C173.668 47.8356 173.838 48.0056 173.929 48.1643C174.042 48.323 174.099 48.5043 174.099 48.7083C174.099 49.0483 173.952 49.513 173.657 50.1023C173.634 50.3743 173.578 50.6123 173.487 50.8163C173.419 51.0203 173.374 51.145 173.351 51.1903C173.442 51.1903 173.487 51.247 173.487 51.3603C173.487 51.4283 173.442 51.6436 173.351 52.0063L172.501 55.1683C172.365 55.735 171.844 57.027 170.937 59.0443C170.053 61.039 169.475 62.2403 169.203 62.6483C169.158 62.739 169.078 62.8976 168.965 63.1243C168.874 63.351 168.784 63.521 168.693 63.6343C168.512 64.1783 168.126 64.881 167.537 65.7423C166.948 66.6036 166.506 67.1136 166.211 67.2723C165.962 67.5216 165.69 67.6463 165.395 67.6463C164.964 67.6463 164.568 67.4423 164.205 67.0343C163.842 66.6263 163.593 66.071 163.457 65.3683L163.185 63.2943C163.14 63.045 163.026 62.2856 162.845 61.0163C162.686 59.747 162.618 58.8743 162.641 58.3983C162.596 58.217 162.573 57.9563 162.573 57.6163C162.573 57.299 162.584 57.0723 162.607 56.9363C162.607 56.8456 162.607 56.7436 162.607 56.6303C162.63 56.4943 162.63 56.3583 162.607 56.2223C162.584 55.973 162.607 55.497 162.675 54.7943C162.743 54.409 162.777 54.0123 162.777 53.6043C162.822 53.151 162.766 52.9243 162.607 52.9243C162.403 52.9243 161.927 53.6156 161.179 54.9983C161.02 55.429 160.794 55.8936 160.499 56.3923C160.204 56.891 160.068 57.163 160.091 57.2083L157.541 63.1923C157.178 63.9403 156.804 65.119 156.419 66.7283C156.056 68.3376 155.852 69.2103 155.807 69.3463C155.83 69.437 155.796 69.607 155.705 69.8563C155.614 70.1283 155.512 70.4456 155.399 70.8083ZM175.881 69.3463C175.7 69.777 175.45 69.9923 175.133 69.9923C174.77 69.9923 174.476 69.743 174.249 69.2443C174 69.0176 173.875 68.6436 173.875 68.1223C173.875 67.533 174 67.0116 174.249 66.5583C174.43 66.2636 174.566 65.6856 174.657 64.8243C174.906 63.8723 175.405 62.2743 176.153 60.0303L177.003 57.4123C177.819 54.8736 178.522 52.8676 179.111 51.3943C179.451 50.7143 179.61 50.227 179.587 49.9323C179.655 49.615 179.746 49.3316 179.859 49.0823C179.972 48.833 180.086 48.6516 180.199 48.5383C180.335 48.3796 180.437 48.255 180.505 48.1643C180.596 48.0736 180.675 48.0283 180.743 48.0283C180.811 48.0283 180.913 48.0623 181.049 48.1303C181.14 48.153 181.287 48.187 181.491 48.2323C181.718 48.2776 181.899 48.391 182.035 48.5723C182.194 48.731 182.352 49.0143 182.511 49.4223C182.715 49.7623 182.862 50.057 182.953 50.3063C183.066 50.5556 183.123 50.8616 183.123 51.2243C183.123 51.4736 183.112 51.6663 183.089 51.8023C183.112 52.2556 183.191 53.015 183.327 54.0803C183.35 54.2616 183.406 54.7603 183.497 55.5763C183.588 56.3923 183.61 57.1063 183.565 57.7183C183.565 58.6476 183.678 60.0303 183.905 61.8663C184.154 63.6796 184.392 64.6656 184.619 64.8243C184.891 64.983 185.254 64.2916 185.707 62.7503C185.775 62.501 185.934 62.1496 186.183 61.6963C186.41 61.2656 186.591 60.8916 186.727 60.5743C186.863 60.257 186.976 59.883 187.067 59.4523C187.498 58.3416 187.928 57.095 188.359 55.7123L189.005 53.7743C189.073 53.457 189.22 53.0263 189.447 52.4823C189.696 51.9383 189.946 51.4623 190.195 51.0543L190.637 50.1703C190.728 49.989 190.852 49.7396 191.011 49.4223C191.17 49.0823 191.249 48.8783 191.249 48.8103C191.249 48.765 191.26 48.6856 191.283 48.5723C191.328 48.459 191.396 48.3683 191.487 48.3003C191.532 48.255 191.657 48.1643 191.861 48.0283C192.088 47.8923 192.235 47.677 192.303 47.3823C192.507 47.2236 192.688 47.1443 192.847 47.1443L193.153 47.2123C193.176 47.235 193.221 47.2916 193.289 47.3823C193.38 47.4503 193.425 47.5296 193.425 47.6203C193.425 47.779 193.278 48.221 192.983 48.9463C192.847 49.8303 192.632 50.4876 192.337 50.9183C192.269 51.0543 192.212 51.1903 192.167 51.3263C192.144 51.4623 192.11 51.5756 192.065 51.6663C191.929 52.0743 191.816 52.369 191.725 52.5503C191.612 53.049 191.555 53.3096 191.555 53.3323C191.464 53.831 191.419 54.069 191.419 54.0463L190.671 55.2363C190.263 56.3016 189.855 57.5143 189.447 58.8743C189.175 59.8263 188.892 60.6763 188.597 61.4243C188.552 61.787 188.484 62.127 188.393 62.4443C188.302 62.7616 188.212 63.011 188.121 63.1923C188.03 63.3736 187.974 63.487 187.951 63.5323C187.951 63.7816 187.702 64.3936 187.203 65.3683C186.704 66.343 186.33 67.0343 186.081 67.4423C185.877 67.7596 185.684 67.9636 185.503 68.0543C185.322 68.1223 185.072 68.1676 184.755 68.1903C184.347 68.2356 184.03 68.1676 183.803 67.9863C183.576 67.7823 183.304 67.3403 182.987 66.6603C182.443 65.5723 182.035 64.5296 181.763 63.5323C181.514 62.535 181.389 61.1296 181.389 59.3163C181.389 58.4096 181.366 57.7863 181.321 57.4463L181.219 56.4603C181.083 55.1456 180.981 53.9103 180.913 52.7543C180.732 53.117 180.539 53.6043 180.335 54.2163C180.154 54.8056 179.972 55.4063 179.791 56.0183C179.428 57.2196 179.134 58.149 178.907 58.8063C178.703 59.441 178.454 59.9963 178.159 60.4723C178.068 61.1296 177.955 61.7076 177.819 62.2063C177.706 62.6823 177.581 63.011 177.445 63.1923C177.264 63.7816 177.116 64.4276 177.003 65.1303L176.765 66.1503C176.742 66.513 176.595 67.091 176.323 67.8843C176.074 68.6776 175.926 69.165 175.881 69.3463ZM205.203 72.1683C205.021 72.1683 204.806 72.021 204.557 71.7263C204.285 71.4543 204.149 71.0463 204.149 70.5023C204.149 69.4596 204.126 68.7456 204.081 68.3603L204.047 66.0483C204.047 65.4363 204.081 65.0736 204.149 64.9603C204.126 64.847 204.115 64.677 204.115 64.4503C204.115 64.2463 204.126 64.0083 204.149 63.7363C204.194 63.4416 204.217 63.215 204.217 63.0563L204.081 62.1383H202.211C201.848 62.1836 201.463 62.2063 201.055 62.2063C200.261 62.2063 198.992 62.1496 197.247 62.0363L196.805 62.7503C196.329 63.4756 195.966 64.1443 195.717 64.7563C195.218 66.0483 194.731 67.0456 194.255 67.7483C193.62 68.9723 193.189 69.5843 192.963 69.5843H192.759C192.6 69.5843 192.453 69.5616 192.317 69.5163C192.203 69.4936 192.056 69.4143 191.875 69.2783C191.467 69.097 191.263 68.825 191.263 68.4623C191.263 68.009 191.523 67.4196 192.045 66.6943L192.487 65.9803C192.487 65.8443 192.781 65.2096 193.371 64.0763C193.96 62.943 194.357 62.331 194.561 62.2403C194.765 62.0363 194.867 61.8323 194.867 61.6283C194.867 61.4016 194.731 61.175 194.459 60.9483C194.323 60.8803 194.255 60.7896 194.255 60.6763C194.255 60.5403 194.334 60.4156 194.493 60.3023C194.651 60.189 194.833 60.1323 195.037 60.1323C195.15 60.0643 195.252 60.0076 195.343 59.9623C195.456 59.917 195.535 59.883 195.581 59.8603C195.649 59.815 195.683 59.7583 195.683 59.6903C195.683 59.577 195.955 58.999 196.499 57.9563C197.043 56.891 197.462 56.177 197.757 55.8143C197.983 55.2023 198.176 54.7603 198.335 54.4883C198.516 54.2163 198.629 54.0236 198.675 53.9103C198.788 53.797 199.015 53.423 199.355 52.7883C199.4 52.7203 199.547 52.471 199.797 52.0403C200.023 51.8136 200.25 51.553 200.477 51.2583C200.726 50.941 200.885 50.737 200.953 50.6463C201.043 50.4876 201.179 50.295 201.361 50.0683C201.474 49.7963 201.678 49.4676 201.973 49.0823C202.267 48.6743 202.449 48.425 202.517 48.3343C202.834 47.9716 203.083 47.7223 203.265 47.5863C203.469 47.4276 203.684 47.3483 203.911 47.3483C204.115 47.3483 204.353 47.4163 204.625 47.5523C205.146 47.779 205.531 48.1416 205.781 48.6403C206.03 49.139 206.189 49.8643 206.257 50.8163C206.279 50.975 206.325 51.3263 206.393 51.8703C206.483 52.4143 206.529 52.8903 206.529 53.2983C206.529 53.593 206.495 53.831 206.427 54.0123V55.5083C206.427 56.2563 206.449 56.8116 206.495 57.1743C206.427 57.4236 206.393 57.8316 206.393 58.3983L206.427 59.7243C206.427 60.0643 206.415 60.3476 206.393 60.5743L206.359 61.8323L206.325 63.0903C206.302 63.657 206.291 64.371 206.291 65.2323L206.325 67.3743V68.7003C206.325 69.9923 206.245 70.8763 206.087 71.3523C205.951 71.851 205.656 72.123 205.203 72.1683ZM198.301 60.2683C198.459 60.2456 198.788 60.2116 199.287 60.1663C199.808 60.121 200.329 60.1096 200.851 60.1323C201.485 60.087 201.916 60.0643 202.143 60.0643C202.437 60.0643 202.743 60.0756 203.061 60.0983C203.378 60.0983 203.559 60.087 203.605 60.0643C204.035 60.087 204.251 59.6903 204.251 58.8743C204.137 57.6956 204.081 56.007 204.081 53.8083C204.081 52.9696 204.092 52.403 204.115 52.1083C204.115 51.7456 204.092 51.3943 204.047 51.0543C204.024 50.7143 204.001 50.499 203.979 50.4083C203.888 50.295 203.48 50.6916 202.755 51.5983C202.029 52.4823 201.542 53.1396 201.293 53.5703C201.157 53.7516 200.975 54.069 200.749 54.5223C200.635 54.7036 200.511 54.919 200.375 55.1683C200.261 55.4176 200.114 55.6896 199.933 55.9843C198.731 57.843 198.131 59.1463 198.131 59.8943C198.131 60.0983 198.187 60.223 198.301 60.2683ZM220.168 70.5363C219.556 70.151 219.068 69.607 218.706 68.9043C218.366 68.2016 218.218 67.4763 218.264 66.7283C218.241 64.0536 218.706 61.2316 219.658 58.2623C220.066 57.061 220.564 55.803 221.154 54.4883C221.743 53.151 222.242 52.131 222.65 51.4283C223.284 50.3856 223.987 49.4676 224.758 48.6743C225.528 47.881 226.152 47.3483 226.628 47.0763C226.922 46.9176 227.319 46.7703 227.818 46.6343C228.339 46.4983 228.883 46.4303 229.45 46.4303C229.903 46.4303 230.322 46.4756 230.708 46.5663C231.252 46.7023 231.784 46.895 232.306 47.1443C232.827 47.371 233.178 47.5636 233.36 47.7223C233.45 47.8583 233.552 48.017 233.666 48.1983C233.802 48.3796 233.904 48.5383 233.972 48.6743C234.04 48.8103 234.074 48.9576 234.074 49.1163C234.096 49.343 233.994 49.615 233.768 49.9323C233.564 50.2496 233.348 50.4083 233.122 50.4083C232.986 50.4083 232.85 50.329 232.714 50.1703C232.487 49.8303 232.26 49.581 232.034 49.4223C231.807 49.241 231.569 49.0936 231.32 48.9803C231.07 48.867 230.889 48.7763 230.776 48.7083C230.481 48.527 230.073 48.4363 229.552 48.4363C229.144 48.4363 228.724 48.5043 228.294 48.6403C227.886 48.7536 227.534 48.935 227.24 49.1843C226.832 49.547 226.333 50.091 225.744 50.8163C225.154 51.519 224.701 52.1763 224.384 52.7883C223.024 55.1683 222.06 57.4123 221.494 59.5203C221.312 60.1776 221.108 61.005 220.882 62.0023C220.655 62.9996 220.508 63.7476 220.44 64.2463C220.304 65.085 220.236 65.8443 220.236 66.5243C220.236 67.363 220.372 68.009 220.644 68.4623C220.938 68.893 221.414 69.1083 222.072 69.1083C222.525 69.1083 223.08 68.995 223.738 68.7683C224.486 68.6776 225.336 68.247 226.288 67.4763C227.24 66.683 228.033 65.7876 228.668 64.7903C229.688 62.8863 230.198 61.6056 230.198 60.9483C230.198 60.495 229.982 60.2683 229.552 60.2683C229.098 60.223 228.532 60.2003 227.852 60.2003C227.398 60.2003 227.047 60.189 226.798 60.1663C226.548 60.1436 226.322 60.0756 226.118 59.9623C225.959 59.713 225.88 59.4976 225.88 59.3163C225.88 59.0443 226.027 58.761 226.322 58.4663C226.639 58.3303 227.262 58.2623 228.192 58.2623C229.506 58.2623 230.538 58.4436 231.286 58.8063C231.988 59.1463 232.34 59.8376 232.34 60.8803C232.34 61.379 232.294 61.821 232.204 62.2063C232 63.0903 231.308 64.4163 230.13 66.1843C229.608 66.9096 228.826 67.703 227.784 68.5643C226.764 69.403 225.936 69.947 225.302 70.1963C224.055 70.763 222.933 71.0463 221.936 71.0463C221.233 71.0463 220.644 70.8763 220.168 70.5363ZM238.572 69.9583C238.481 70.0036 238.368 70.0263 238.232 70.0263C238.073 70.0263 237.813 70.015 237.45 69.9923C237.087 69.9696 236.521 69.947 235.75 69.9243C233.914 69.7203 232.962 69.607 232.894 69.5843C232.871 69.5843 232.826 69.5616 232.758 69.5163C232.713 69.471 232.611 69.3916 232.452 69.2783C232.135 69.1876 231.874 68.9836 231.67 68.6663C231.489 68.3263 231.443 68.0316 231.534 67.7823C231.557 67.7143 231.67 67.6463 231.874 67.5783C232.078 67.5103 232.293 67.4763 232.52 67.4763C232.633 67.4763 232.724 67.4876 232.792 67.5103C233.087 67.4423 233.608 67.3856 234.356 67.3403C234.991 67.295 235.41 67.2496 235.614 67.2043C235.795 67.1363 235.977 67.0796 236.158 67.0343C236.339 66.989 236.498 66.9436 236.634 66.8983C236.747 66.921 236.849 66.8643 236.94 66.7283C237.031 66.5696 237.144 66.2976 237.28 65.9123L237.518 65.2323C237.813 64.4843 238.153 63.5436 238.538 62.4103C238.946 61.2543 239.241 60.4156 239.422 59.8943C239.399 59.713 239.422 59.475 239.49 59.1803C239.581 58.8856 239.626 58.7043 239.626 58.6363C239.671 58.591 239.751 58.3756 239.864 57.9903C240.045 57.4236 240.249 56.8796 240.476 56.3583C241.292 54.3636 241.7 53.2416 241.7 52.9923L242.006 52.3803C242.391 51.5643 242.584 51.1223 242.584 51.0543L241.122 51.0203C240.397 51.0656 239.649 50.9976 238.878 50.8163C238.107 50.635 237.654 50.431 237.518 50.2043C237.427 50.091 237.382 49.989 237.382 49.8983C237.382 49.8303 237.439 49.7623 237.552 49.6943C237.688 49.6036 237.79 49.513 237.858 49.4223C237.903 49.241 238.073 49.1276 238.368 49.0823C238.663 49.037 239.241 48.9916 240.102 48.9463H241.394C242.573 48.9463 243.173 48.8896 243.196 48.7763C243.468 48.7763 243.717 48.7536 243.944 48.7083C244.103 48.7083 244.454 48.6403 244.998 48.5043C245.542 48.3683 246.041 48.2323 246.494 48.0963C247.083 47.9603 247.65 47.8583 248.194 47.7903C248.738 47.7223 249.123 47.6883 249.35 47.6883L249.69 47.6543C250.347 47.6543 250.676 48.0623 250.676 48.8783C250.676 49.037 250.653 49.1503 250.608 49.2183C250.563 49.2636 250.393 49.309 250.098 49.3543C249.826 49.3996 249.452 49.445 248.976 49.4903C247.729 49.6943 246.879 49.8643 246.426 50.0003L245.508 50.3063C245.327 50.3063 245.168 50.3856 245.032 50.5443C244.919 50.6803 244.805 50.941 244.692 51.3263C244.669 51.349 244.624 51.383 244.556 51.4283C244.511 51.4736 244.488 51.519 244.488 51.5643C244.488 51.6096 244.431 51.7456 244.318 51.9723C244.205 52.1763 244.114 52.3576 244.046 52.5163C244.046 52.675 243.933 53.0376 243.706 53.6043C243.207 54.8283 242.935 55.7803 242.89 56.4603C242.165 58.2283 241.791 59.3503 241.768 59.8263C241.723 59.8943 241.496 60.529 241.088 61.7303C240.567 63.3623 240.249 64.2236 240.136 64.3143C240.045 64.405 239.977 64.5523 239.932 64.7563C239.909 64.9376 239.898 65.0396 239.898 65.0623C239.694 65.6743 239.592 66.1956 239.592 66.6263C239.592 66.785 239.603 66.887 239.626 66.9323C240.941 66.9323 241.779 66.887 242.142 66.7963L243.808 66.7283C244.261 66.7283 244.59 66.7623 244.794 66.8303C244.998 66.8756 245.191 66.887 245.372 66.8643C245.712 66.8416 245.95 66.887 246.086 67.0003C246.222 67.091 246.381 67.3403 246.562 67.7483C246.63 67.8843 246.664 67.9976 246.664 68.0883C246.664 68.2016 246.551 68.3036 246.324 68.3943C246.233 68.4623 246.063 68.519 245.814 68.5643C245.587 68.6096 245.372 68.621 245.168 68.5983L241.564 68.5643H241.326L240.612 68.5983C240.499 68.5756 240.329 68.587 240.102 68.6323C239.875 68.655 239.637 68.6776 239.388 68.7003C239.32 68.723 239.241 68.757 239.15 68.8023C239.082 68.825 239.025 68.859 238.98 68.9043C238.935 68.9496 238.901 69.029 238.878 69.1423C238.878 69.2103 238.833 69.335 238.742 69.5163C238.651 69.7203 238.595 69.8676 238.572 69.9583ZM249.567 69.4143L249.839 67.8163C250.043 66.343 250.27 65.0056 250.519 63.8043C250.791 62.603 250.972 62.0023 251.063 62.0023C251.154 61.957 251.199 61.8323 251.199 61.6283C251.222 61.4016 251.233 61.243 251.233 61.1523L251.301 60.3023L250.791 60.3703C250.519 60.325 250.36 60.2683 250.315 60.2003C250.27 60.1323 250.247 59.9283 250.247 59.5883C250.27 59.339 250.304 59.169 250.349 59.0783C250.417 58.9876 250.542 58.931 250.723 58.9083C251.108 58.7723 251.494 58.557 251.879 58.2623C252.264 57.945 252.446 57.6843 252.423 57.4803C252.446 57.1403 252.627 56.4376 252.967 55.3723C253.307 54.307 253.681 53.389 254.089 52.6183C254.338 51.7796 254.463 51.247 254.463 51.0203C254.644 50.363 254.735 50.0003 254.735 49.9323C254.826 49.7056 254.871 49.5923 254.871 49.5923C254.871 49.5016 254.803 49.4563 254.667 49.4563C254.599 49.4563 254.429 49.479 254.157 49.5243C254.112 49.547 253.987 49.5696 253.783 49.5923C253.579 49.615 253.375 49.615 253.171 49.5923C252.899 49.6603 252.684 49.6943 252.525 49.6943C252.412 49.6943 252.321 49.6716 252.253 49.6263C252.185 49.581 252.128 49.5016 252.083 49.3883C251.902 49.207 251.811 49.0143 251.811 48.8103C251.811 48.697 251.845 48.6063 251.913 48.5383C251.981 48.4476 252.072 48.4136 252.185 48.4363H252.253C252.389 48.4363 252.548 48.3456 252.729 48.1643C252.82 48.0736 253.046 47.9716 253.409 47.8583C253.772 47.7223 254.18 47.643 254.633 47.6203C254.95 47.5976 255.37 47.507 255.891 47.3483C256.435 47.167 256.752 47.031 256.843 46.9403C256.843 46.827 256.922 46.7703 257.081 46.7703C257.24 46.7703 257.33 46.7703 257.353 46.7703C257.489 46.7476 257.67 46.725 257.897 46.7023C258.146 46.657 258.305 46.6456 258.373 46.6683C258.849 46.4643 260.175 46.3736 262.351 46.3963L263.201 46.4643C263.496 46.4643 263.643 46.419 263.643 46.3283C263.711 46.3283 263.881 46.351 264.153 46.3963C264.448 46.4416 264.754 46.5096 265.071 46.6003C265.864 46.6456 266.42 46.8043 266.737 47.0763C267.077 47.3256 267.258 47.7676 267.281 48.4023L267.417 49.1843L266.499 48.8783C265.978 48.8103 265.241 48.731 264.289 48.6403C263.36 48.527 262.612 48.4703 262.045 48.4703C261.796 48.4703 261.626 48.4816 261.535 48.5043C261.354 48.5043 261.116 48.527 260.821 48.5723C260.526 48.595 260.277 48.595 260.073 48.5723C259.733 48.663 259.382 48.7083 259.019 48.7083L258.611 48.6743C258.475 48.7196 258.282 48.765 258.033 48.8103C257.806 48.8556 257.648 48.9123 257.557 48.9803C257.512 49.003 257.432 49.0483 257.319 49.1163C257.206 49.1616 257.115 49.1843 257.047 49.1843H257.013C256.968 49.1843 256.934 49.275 256.911 49.4563C256.888 49.615 256.866 49.7963 256.843 50.0003C256.866 50.4536 256.832 50.8503 256.741 51.1903C256.65 51.5076 256.367 52.2783 255.891 53.5023L255.585 54.3523C255.313 55.0096 255.143 55.5083 255.075 55.8483C254.826 56.5283 254.588 57.0496 254.361 57.4123C254.384 57.639 254.429 57.7523 254.497 57.7523C254.565 57.7523 254.656 57.6956 254.769 57.5823C254.814 57.605 254.894 57.6163 255.007 57.6163C255.143 57.6163 255.324 57.5596 255.551 57.4463C255.778 57.4463 256.004 57.469 256.231 57.5143V57.4803C256.231 57.4123 256.344 57.3783 256.571 57.3783C256.82 57.3556 257.024 57.333 257.183 57.3103C257.342 57.2196 257.67 57.129 258.169 57.0383C258.532 56.9476 258.781 56.8796 258.917 56.8343C259.189 56.721 259.359 56.6643 259.427 56.6643C259.518 56.6643 259.722 56.7323 260.039 56.8683C260.311 57.231 260.447 57.673 260.447 58.1943C260.447 58.5343 260.379 58.761 260.243 58.8743L259.189 59.2483C259.121 59.2256 259.008 59.2143 258.849 59.2143C258.509 59.2143 258.226 59.271 257.999 59.3843C257.614 59.611 257.115 59.7243 256.503 59.7243C256.14 59.7243 255.857 59.713 255.653 59.6903C255.54 59.781 255.347 59.849 255.075 59.8943C254.826 59.917 254.667 59.951 254.599 59.9963C254.531 59.9963 254.395 60.019 254.191 60.0643C253.987 60.087 253.851 60.087 253.783 60.0643C253.647 60.0643 253.579 60.2343 253.579 60.5743C253.579 60.6423 253.545 60.7216 253.477 60.8123C253.432 60.903 253.398 60.9596 253.375 60.9823C253.284 61.0503 253.216 61.1183 253.171 61.1863C253.148 61.2543 253.137 61.3336 253.137 61.4243C253.137 61.4923 253.126 61.6623 253.103 61.9343C253.08 62.2063 253.024 62.467 252.933 62.7163C252.638 63.6683 252.389 64.575 252.185 65.4363C252.004 66.2976 251.958 66.785 252.049 66.8983C252.276 67.125 252.468 67.2496 252.627 67.2723C252.65 67.2496 252.684 67.2383 252.729 67.2383C252.82 67.2383 252.899 67.3176 252.967 67.4763C253.035 67.6123 253.092 67.7823 253.137 67.9863C253.114 68.145 252.797 68.6096 252.185 69.3803C251.845 70.1736 251.482 70.5703 251.097 70.5703C250.825 70.5703 250.485 70.389 250.077 70.0263L249.567 69.4143ZM268.159 70.2983C268.068 70.321 267.932 70.3323 267.751 70.3323C267.411 70.3323 267.116 70.2076 266.867 69.9583C266.64 69.7316 266.527 69.335 266.527 68.7683C266.527 67.9523 266.788 66.8643 267.309 65.5043L267.683 64.3823C268.816 61.073 269.553 59.169 269.893 58.6703C270.006 58.3983 270.063 58.115 270.063 57.8203C270.063 57.707 270.12 57.537 270.233 57.3103C270.346 57.0836 270.437 56.9023 270.505 56.7663C270.777 56.2676 270.913 55.8936 270.913 55.6443C270.913 55.5536 271.049 55.1003 271.321 54.2843C271.593 53.4456 271.865 52.811 272.137 52.3803C272.182 52.2896 272.33 51.9496 272.579 51.3603C272.851 50.7483 272.987 50.3743 272.987 50.2383C272.987 50.193 272.715 50.1703 272.171 50.1703C271.423 50.1703 270.482 50.2043 269.349 50.2723C268.238 50.3403 267.513 50.4196 267.173 50.5103C266.697 50.6236 266.414 50.669 266.323 50.6463C266.232 50.601 266.119 50.4763 265.983 50.2723C265.87 50.0456 265.813 49.819 265.813 49.5923C265.813 49.2976 265.926 49.0936 266.153 48.9803C266.516 48.7763 266.844 48.6403 267.139 48.5723C267.456 48.5043 267.864 48.459 268.363 48.4363C268.748 48.4363 269.224 48.4023 269.791 48.3343C270.267 48.3343 270.709 48.3116 271.117 48.2663C271.548 48.1983 271.797 48.1643 271.865 48.1643C272.046 48.1643 272.273 48.1303 272.545 48.0623C273.18 47.949 273.61 47.8923 273.837 47.8923C274.154 47.8923 274.472 47.8583 274.789 47.7903C275.152 47.745 275.39 47.7223 275.503 47.7223H277.611C277.906 47.7223 278.314 47.677 278.835 47.5863C279.356 47.4956 279.821 47.405 280.229 47.3143C281.022 47.1556 281.612 47.0763 281.997 47.0763C282.949 47.0763 283.561 47.439 283.833 48.1643C283.878 48.4816 283.742 48.7423 283.425 48.9463C283.108 49.1276 282.564 49.275 281.793 49.3883C281.045 49.479 279.957 49.5696 278.529 49.6603C278.325 49.683 277.928 49.717 277.339 49.7623C276.772 49.8076 276.398 49.8643 276.217 49.9323C276.058 50.0003 275.979 50.1023 275.979 50.2383C275.979 50.3743 275.911 50.5103 275.775 50.6463C275.662 50.7596 275.582 50.8503 275.537 50.9183C275.356 50.9863 275.027 51.6323 274.551 52.8563C274.098 54.0803 273.871 54.817 273.871 55.0663C273.848 55.1116 273.803 55.2023 273.735 55.3383C273.667 55.4743 273.633 55.5763 273.633 55.6443C273.474 56.0523 273.225 56.5736 272.885 57.2083C272.205 58.999 271.774 60.1096 271.593 60.5403L271.219 61.4583C270.72 63.113 270.358 64.235 270.131 64.8243C270.063 64.9376 269.972 65.0396 269.859 65.1303C269.768 65.221 269.723 65.3456 269.723 65.5043C269.723 65.6176 269.474 66.445 268.975 67.9863C268.499 69.505 268.227 70.2756 268.159 70.2983ZM284.445 62.9883C284.105 62.9656 283.845 62.8296 283.663 62.5803C283.505 62.331 283.425 62.0476 283.425 61.7303C283.425 61.481 283.459 61.2316 283.527 60.9823C283.527 60.869 283.629 60.5856 283.833 60.1323C284.015 59.7243 284.128 59.441 284.173 59.2823C284.423 58.8516 284.797 58.353 285.295 57.7863C285.817 57.197 286.27 56.7663 286.655 56.4943L287.233 56.0863C287.233 55.9956 287.392 55.8256 287.709 55.5763C288.027 55.327 288.299 55.1456 288.525 55.0323C288.616 54.9643 288.775 54.851 289.001 54.6923C289.228 54.5336 289.443 54.3636 289.647 54.1823C290.146 53.6836 290.52 53.219 290.769 52.7883C291.019 52.335 291.2 51.8816 291.313 51.4283C291.427 50.975 291.597 50.2043 291.823 49.1163L291.857 47.8923C291.857 47.5976 291.823 47.371 291.755 47.2123C291.71 47.0536 291.597 46.9063 291.415 46.7703C291.143 46.6343 290.849 46.5663 290.531 46.5663C289.761 46.5663 288.945 46.8723 288.083 47.4843C287.222 48.0736 286.587 48.8216 286.179 49.7283C286.021 50.1363 285.941 50.431 285.941 50.6123C285.941 50.7256 285.975 50.873 286.043 51.0543C286.043 51.1903 286.066 51.3603 286.111 51.5643C286.179 51.7683 286.213 51.9043 286.213 51.9723C286.145 51.995 285.953 52.0063 285.635 52.0063C285.023 52.0063 284.604 51.9496 284.377 51.8363C284.355 51.791 284.309 51.723 284.241 51.6323C284.173 51.519 284.105 51.4056 284.037 51.2923C283.947 51.1563 283.89 51.0203 283.867 50.8843C283.845 50.7483 283.833 50.6123 283.833 50.4763C283.856 50.3176 283.867 50.159 283.867 50.0003C284.139 49.1843 284.536 48.391 285.057 47.6203C285.601 46.8496 286.27 46.2603 287.063 45.8523C287.517 45.6483 287.891 45.4783 288.185 45.3423C288.48 45.1836 288.673 45.0816 288.763 45.0363C288.809 45.0363 288.922 45.0363 289.103 45.0363C289.285 45.0136 289.545 44.9796 289.885 44.9343H290.055H290.259C290.486 44.9343 290.599 44.9796 290.599 45.0703H291.585C292.016 45.1836 292.447 45.365 292.877 45.6143C293.331 45.8636 293.671 46.1243 293.897 46.3963C294.033 46.827 294.101 47.3483 294.101 47.9603C294.101 49.0936 293.886 50.329 293.455 51.6663C293.025 52.981 292.469 54.0123 291.789 54.7603L291.041 55.4403C289.931 56.4376 289.228 57.1063 288.933 57.4463C288.208 57.8543 287.539 58.4776 286.927 59.3163C286.338 60.1323 285.885 60.9936 285.567 61.9003C285.431 62.2176 285.307 62.467 285.193 62.6483C285.103 62.807 285.012 62.909 284.921 62.9543C284.831 62.977 284.672 62.9883 284.445 62.9883ZM283.493 69.1423C283.063 69.301 282.734 69.3803 282.507 69.3803C282.213 69.3803 281.873 69.2443 281.487 68.9723C281.17 68.655 281.011 68.3376 281.011 68.0203C281.011 67.5216 281.397 67.0116 282.167 66.4903C282.621 66.2183 282.949 66.0823 283.153 66.0823C283.267 66.0823 283.539 66.1616 283.969 66.3203C284.581 66.683 284.887 67.1023 284.887 67.5783C284.887 67.8503 284.763 68.1223 284.513 68.3943C284.287 68.6663 283.947 68.9156 283.493 69.1423Z" fill="#F28F38"/>
</svg>
