<svg width="368" height="205" viewBox="0 0 368 205" fill="none" xmlns="http://www.w3.org/2000/svg">
<path d="M364.971 77.3075C367.124 144.633 250.469 144.633 250.469 144.633H167.971L185.521 196L126.728 144.633C126.728 144.633 3 136.654 3 77.3075C3 9.98191 113.139 3 177.197 3C241.255 3 363.216 22.4496 364.971 77.3075Z" fill="#FCF7F4" stroke="#060000" stroke-opacity="0.7" stroke-width="5"/>
<path d="M89.406 92.1859C89.406 92.3086 89.2987 92.3699 89.084 92.3699C88.9307 92.3699 88.7467 92.3086 88.532 92.1859C88.3173 92.0632 88.1487 91.8946 88.026 91.6799C87.7807 91.1586 87.658 90.5146 87.658 89.7479L87.704 87.8619C88.6547 82.2806 89.774 76.6686 91.062 71.0259C91.4913 69.5232 91.844 68.0972 92.12 66.7479C92.4267 65.3986 92.6107 64.5399 92.672 64.1719C92.672 64.0799 92.58 64.1259 92.396 64.3099C92.2427 64.4632 92.0893 64.6626 91.936 64.9079C91.7827 65.1226 91.7213 65.2759 91.752 65.3679L90.602 67.0699C90.418 67.2539 89.9887 67.9592 89.314 69.1859C88.854 70.1672 88.44 70.9339 88.072 71.4859L86.784 73.9239C85.8333 75.6719 85.2507 76.7299 85.036 77.0979C84.7293 77.5579 84.2847 78.3552 83.702 79.4899C83.3953 80.2259 82.8433 81.0999 82.046 82.1119C81.8007 82.4492 81.5553 82.8172 81.31 83.2159C81.0953 83.6146 80.9573 83.8752 80.896 83.9979C80.896 84.1512 80.574 84.6726 79.93 85.5619C79.3167 86.4512 78.7493 87.1872 78.228 87.7699C77.5227 88.5059 76.94 89.0426 76.48 89.3799C76.02 89.6866 75.5907 89.8399 75.192 89.8399C74.6707 89.8399 74.1033 89.5486 73.49 88.9659C73.0913 88.5366 72.8 88.0306 72.616 87.4479C72.4627 86.8652 72.386 86.1446 72.386 85.2859C72.386 84.5192 72.4933 83.2312 72.708 81.4219C72.7387 81.2686 73.03 79.6279 73.582 76.4999C74.1647 73.3412 74.5173 71.6086 74.64 71.3019C74.6707 71.1179 74.686 70.9032 74.686 70.6579C74.686 70.3819 74.64 70.2439 74.548 70.2439C74.456 70.2439 74.2873 70.4432 74.042 70.8419C73.95 70.9646 73.398 71.8232 72.386 73.4179C71.4047 75.0126 70.3467 77.0519 69.212 79.5359C67.4333 82.8172 66.1147 85.2859 65.256 86.9419C64.3973 88.5672 63.7687 89.7326 63.37 90.4379C62.8487 91.4499 62.542 92.0019 62.45 92.0939C61.99 92.0939 61.4073 91.7106 60.702 90.9439C60.61 90.7599 60.564 90.5912 60.564 90.4379C60.564 90.2232 60.656 89.8706 60.84 89.3799C61.0547 88.8892 61.346 88.2452 61.714 87.4479C62.6647 85.5772 63.2933 84.5192 63.6 84.2739C63.968 83.7832 64.1827 83.2466 64.244 82.6639C64.6427 82.1119 65.21 81.1152 65.946 79.6739C66.406 78.9379 66.9427 78.0179 67.556 76.9139C68.2 75.8099 68.7673 74.7519 69.258 73.7399L70.546 71.4859C71.742 69.4006 72.6927 67.7906 73.398 66.6559C74.134 65.5212 74.686 64.7699 75.054 64.4019C75.5447 63.8192 75.79 63.3592 75.79 63.0219C75.79 62.3779 75.9127 61.7952 76.158 61.2739C76.434 60.7219 76.71 60.4766 76.986 60.5379C77.354 60.5379 77.6453 60.5839 77.86 60.6759C78.1053 60.7372 78.3507 60.9212 78.596 61.2279C78.6573 61.3199 78.7493 61.4732 78.872 61.6879C79.0253 61.8719 79.1327 62.0866 79.194 62.3319C79.286 62.5466 79.332 62.8226 79.332 63.1599C79.332 63.5279 79.286 63.9879 79.194 64.5399C79.1633 64.9386 79.0407 65.8432 78.826 67.2539C78.7033 67.9286 78.642 68.3426 78.642 68.4959C77.8447 70.9186 77.124 73.9546 76.48 77.6039C75.8667 81.2226 75.56 83.7679 75.56 85.2399C75.56 85.5772 75.5907 85.8072 75.652 85.9299C75.8667 86.0832 76.0507 86.0986 76.204 85.9759C76.388 85.8532 76.6487 85.4546 76.986 84.7799C77.3847 84.0439 78.0593 83.0932 79.01 81.9279C79.0713 81.8359 79.6693 80.8239 80.804 78.8919C83.6253 74.2612 86.37 69.6152 89.038 64.9539L90.234 63.0679C90.694 62.3319 91.1387 61.6572 91.568 61.0439C91.9973 60.3999 92.3347 59.9859 92.58 59.8019C92.8867 59.5566 93.178 59.4339 93.454 59.4339C94.0367 59.4339 94.558 59.7866 95.018 60.4919C95.478 61.1972 95.708 62.0866 95.708 63.1599C95.708 63.9879 95.5393 65.2606 95.202 66.9779C94.8647 68.6646 94.42 70.3666 93.868 72.0839C93.684 72.9426 93.4233 74.0159 93.086 75.3039C92.7487 76.5919 92.396 77.7572 92.028 78.7999C91.9667 79.3212 91.844 79.9806 91.66 80.7779C91.6293 80.9312 91.5373 81.4066 91.384 82.2039C91.2613 82.9706 91.2307 83.4919 91.292 83.7679C90.832 84.5959 90.602 86.2519 90.602 88.7359L90.464 89.7939C90.4027 90.6526 90.3413 91.2352 90.28 91.5419C90.2187 91.8486 90.1267 91.9866 90.004 91.9559C89.9427 91.9252 89.8507 91.9099 89.728 91.9099C89.5133 91.9099 89.406 92.0019 89.406 92.1859ZM117.453 88.0459C117.024 87.8926 116.61 87.5246 116.211 86.9419C115.843 86.3286 115.659 85.3472 115.659 83.9979L115.705 81.8819C115.705 81.5139 115.675 81.2532 115.613 81.0999C115.583 80.9466 115.506 80.8699 115.383 80.8699C114.985 80.8699 114.126 81.3912 112.807 82.4339C111.519 83.4766 110.216 84.7186 108.897 86.1599C108.744 86.3132 108.529 86.5432 108.253 86.8499C108.008 87.1259 107.778 87.3406 107.563 87.4939C107.349 87.6166 107.149 87.6779 106.965 87.6779C106.689 87.6779 106.429 87.5706 106.183 87.3559L105.677 86.9419C105.463 86.7579 105.355 86.5432 105.355 86.2979L105.447 85.8839L106.505 82.8479C107.18 81.2839 107.579 80.3026 107.701 79.9039C107.824 79.4746 107.809 79.2752 107.655 79.3059C107.379 79.3366 106.996 79.4899 106.505 79.7659C106.015 80.0112 105.708 80.2566 105.585 80.5019C105.524 80.5019 105.325 80.6706 104.987 81.0079C104.65 81.3146 104.359 81.5446 104.113 81.6979C103.837 82.0966 103.163 82.8172 102.089 83.8599L100.985 84.9179C100.525 85.2859 99.8814 86.0372 99.0534 87.1719C98.6241 87.7239 98.3788 87.9999 98.3174 87.9999C97.3668 87.9999 96.7688 87.5399 96.5234 86.6199C96.4008 86.4052 96.3394 86.1139 96.3394 85.7459C96.3394 85.2552 96.5234 84.2432 96.8914 82.7099C97.1674 81.6672 97.3208 81.0232 97.3514 80.7779L97.5814 79.8579C97.6428 79.4592 97.7808 78.9839 97.9954 78.4319C98.2101 77.8799 98.5781 77.0059 99.0994 75.8099C99.4061 74.9512 99.5594 74.3072 99.5594 73.8779C99.5594 73.4792 99.6974 73.1726 99.9734 72.9579C100.249 72.7126 100.556 72.5899 100.893 72.5899C101.323 72.5899 101.691 72.7586 101.997 73.0959C102.304 73.4332 102.457 73.8779 102.457 74.4299C102.457 74.9512 102.335 75.4879 102.089 76.0399L101.583 77.2819C101.338 77.7726 101.016 78.5699 100.617 79.6739C100.249 80.7472 100.065 81.3452 100.065 81.4679C100.096 81.5599 100.203 81.5446 100.387 81.4219C100.571 81.2686 100.786 81.0846 101.031 80.8699C101.307 80.5939 101.629 80.3179 101.997 80.0419C102.917 79.1832 104.006 78.3552 105.263 77.5579C106.551 76.7606 107.533 76.2546 108.207 76.0399C108.606 76.0399 108.897 76.1012 109.081 76.2239C109.296 76.3159 109.526 76.4999 109.771 76.7759C110.017 77.0212 110.201 77.2052 110.323 77.3279C110.599 77.6039 110.737 78.0026 110.737 78.5239C110.737 78.6772 110.707 78.8766 110.645 79.1219C110.523 79.5512 110.354 80.0726 110.139 80.6859C109.955 81.2992 109.817 81.7439 109.725 82.0199C109.94 81.8359 110.323 81.5139 110.875 81.0539C111.427 80.5939 111.933 80.1646 112.393 79.7659C113.927 78.5699 115.138 77.9719 116.027 77.9719C116.671 77.9719 117.223 78.3092 117.683 78.9839C117.959 79.2599 118.128 79.5512 118.189 79.8579C118.251 80.1339 118.281 80.5172 118.281 81.0079C118.281 81.4986 118.281 81.8819 118.281 82.1579C118.312 82.3726 118.327 82.7406 118.327 83.2619C118.358 83.5072 118.389 83.9826 118.419 84.6879C118.481 85.3932 118.557 85.7919 118.649 85.8839C118.803 86.0679 119.324 86.2366 120.213 86.3899C120.765 86.4819 121.041 86.7272 121.041 87.1259C121.041 87.4019 120.842 87.6779 120.443 87.9539C120.045 88.1992 119.554 88.3219 118.971 88.3219C118.419 88.3219 117.913 88.2299 117.453 88.0459ZM123.736 88.2759C123.49 87.9692 123.368 87.6626 123.368 87.3559C123.368 87.1106 123.291 86.9879 123.138 86.9879C122.954 86.8039 123.306 85.7612 124.196 83.8599C125.085 81.9279 125.852 80.4559 126.496 79.4439C126.618 79.3519 126.71 79.2292 126.772 79.0759C126.833 78.8919 126.833 78.7999 126.772 78.7999C126.833 78.7079 126.925 78.5546 127.048 78.3399C127.17 78.1252 127.293 77.9412 127.416 77.7879C127.937 76.7759 128.152 75.9632 128.06 75.3499C127.937 75.2272 127.799 75.1812 127.646 75.2119C127.523 75.2426 127.446 75.2732 127.416 75.3039C127.354 75.3346 127.186 75.3959 126.91 75.4879C126.664 75.5492 126.45 75.6412 126.266 75.7639C125.56 76.2239 125.116 76.4539 124.932 76.4539C124.748 76.4539 124.579 76.3619 124.426 76.1779C124.303 75.9939 124.165 75.6872 124.012 75.2579C123.92 74.9819 123.874 74.7826 123.874 74.6599C123.874 74.4452 123.996 74.2306 124.242 74.0159C124.426 73.8319 124.64 73.6939 124.886 73.6019C125.162 73.4792 125.346 73.3872 125.438 73.3259C126.082 72.9579 126.542 72.7432 126.818 72.6819C127.37 72.5286 127.814 72.4519 128.152 72.4519C129.072 72.4519 129.716 72.8812 130.084 73.7399C130.513 74.2612 130.728 74.8592 130.728 75.5339C130.728 76.1166 130.513 76.8679 130.084 77.7879L129.624 78.4779C129.532 78.6619 129.486 78.7846 129.486 78.8459C129.486 78.9072 129.501 78.9379 129.532 78.9379C129.654 78.9379 129.792 78.8306 129.946 78.6159C130.099 78.4626 130.298 78.2786 130.544 78.0639C130.789 77.8186 130.958 77.6959 131.05 77.6959C131.08 77.6959 131.126 77.6806 131.188 77.6499C131.249 77.5886 131.28 77.4659 131.28 77.2819L131.74 76.8679C131.862 76.8679 132.23 76.6072 132.844 76.0859L133.718 75.3959C134.055 75.1506 134.362 75.0279 134.638 75.0279C134.73 74.9972 134.868 74.9819 135.052 74.9819C135.634 74.9819 136.11 75.3039 136.478 75.9479C136.846 76.5612 137.03 77.3586 137.03 78.3399L136.064 80.8239L137.72 78.7999C137.996 78.4626 138.364 78.0946 138.824 77.6959C138.885 77.5119 138.962 77.4046 139.054 77.3739C139.176 77.3126 139.253 77.2819 139.284 77.2819C139.314 77.2819 139.345 77.2666 139.376 77.2359C139.437 77.2052 139.468 77.1592 139.468 77.0979C139.59 77.0059 139.744 76.8986 139.928 76.7759C140.142 76.6226 140.28 76.4999 140.342 76.4079C140.618 76.2852 140.924 76.2239 141.262 76.2239C141.906 76.2239 142.442 76.6379 142.872 77.4659C143.056 77.8032 143.163 78.1099 143.194 78.3859C143.255 78.6312 143.286 79.0606 143.286 79.6739C143.163 80.3486 143.056 81.0539 142.964 81.7899C142.964 81.9126 142.933 82.2192 142.872 82.7099C142.718 83.0472 142.642 83.5686 142.642 84.2739C142.642 84.7032 142.657 84.9792 142.688 85.1019C142.749 85.2246 142.872 85.2859 143.056 85.2859C143.516 85.1939 144.114 84.9792 144.85 84.6419C145.616 84.2739 146.168 83.9212 146.506 83.5839C146.966 83.1239 147.38 82.8939 147.748 82.8939C148.085 82.8939 148.3 83.0779 148.392 83.4459C148.484 83.6299 148.238 84.1206 147.656 84.9179C147.104 85.7152 146.72 86.1139 146.506 86.1139C146.444 86.1139 146.322 86.2059 146.138 86.3899C145.984 86.5739 145.862 86.6966 145.77 86.7579C145.248 87.3406 144.819 87.6319 144.482 87.6319C144.359 87.6319 144.19 87.6779 143.976 87.7699C143.792 87.8312 143.623 87.8619 143.47 87.8619C143.408 87.8926 143.255 87.9079 143.01 87.9079C142.55 87.9079 142.105 87.7852 141.676 87.5399C141.246 87.2946 140.97 86.9266 140.848 86.4359C140.602 85.8226 140.48 84.9639 140.48 83.8599C140.48 83.5839 140.51 83.1392 140.572 82.5259L140.802 81.0999C140.863 80.5172 140.924 80.1646 140.986 80.0419V79.6279C140.986 79.1066 140.94 78.8459 140.848 78.8459C140.602 78.8459 139.79 79.6432 138.41 81.2379C137.03 82.8019 135.972 84.1512 135.236 85.2859C135.021 85.5619 134.776 85.9759 134.5 86.5279C134.254 87.0492 134.101 87.3252 134.04 87.3559C133.917 87.4786 133.779 87.5399 133.626 87.5399C133.442 87.5399 133.242 87.4479 133.028 87.2639C132.813 87.0799 132.629 86.8499 132.476 86.5739C132.353 86.2672 132.292 86.0372 132.292 85.8839C132.292 85.6692 132.384 85.2552 132.568 84.6419C132.752 83.9979 133.012 83.1546 133.35 82.1119C133.687 81.0999 133.963 80.2259 134.178 79.4899C134.423 78.7539 134.576 78.2632 134.638 78.0179C134.638 77.8032 133.871 78.3552 132.338 79.6739C132.031 80.0419 131.678 80.4252 131.28 80.8239C130.574 81.5599 129.777 82.4186 128.888 83.3999C128.029 84.3812 127.278 85.3166 126.634 86.2059C125.959 87.1259 125.453 87.7699 125.116 88.1379C124.809 88.5059 124.548 88.6899 124.334 88.6899C124.18 88.6899 123.981 88.5519 123.736 88.2759ZM153.052 87.5859C152.469 87.8006 152.024 87.9079 151.718 87.9079C151.288 87.9079 150.828 87.7239 150.338 87.3559C149.908 86.9266 149.694 86.4972 149.694 86.0679C149.694 85.3932 150.215 84.7032 151.258 83.9979C151.871 83.6299 152.316 83.4459 152.592 83.4459C152.745 83.4459 153.113 83.5532 153.696 83.7679C154.524 84.2586 154.938 84.8259 154.938 85.4699C154.938 85.8379 154.769 86.2059 154.432 86.5739C154.125 86.9419 153.665 87.2792 153.052 87.5859ZM162.171 87.5859C161.588 87.8006 161.143 87.9079 160.837 87.9079C160.407 87.9079 159.947 87.7239 159.457 87.3559C159.027 86.9266 158.813 86.4972 158.813 86.0679C158.813 85.3932 159.334 84.7032 160.377 83.9979C160.99 83.6299 161.435 83.4459 161.711 83.4459C161.864 83.4459 162.232 83.5532 162.815 83.7679C163.643 84.2586 164.057 84.8259 164.057 85.4699C164.057 85.8379 163.888 86.2059 163.551 86.5739C163.244 86.9419 162.784 87.2792 162.171 87.5859ZM194.658 92.1859C194.658 92.3086 194.551 92.3699 194.336 92.3699C194.183 92.3699 193.999 92.3086 193.784 92.1859C193.569 92.0632 193.401 91.8946 193.278 91.6799C193.033 91.1586 192.91 90.5146 192.91 89.7479L192.956 87.8619C193.907 82.2806 195.026 76.6686 196.314 71.0259C196.743 69.5232 197.096 68.0972 197.372 66.7479C197.679 65.3986 197.863 64.5399 197.924 64.1719C197.924 64.0799 197.832 64.1259 197.648 64.3099C197.495 64.4632 197.341 64.6626 197.188 64.9079C197.035 65.1226 196.973 65.2759 197.004 65.3679L195.854 67.0699C195.67 67.2539 195.241 67.9592 194.566 69.1859C194.106 70.1672 193.692 70.9339 193.324 71.4859L192.036 73.9239C191.085 75.6719 190.503 76.7299 190.288 77.0979C189.981 77.5579 189.537 78.3552 188.954 79.4899C188.647 80.2259 188.095 81.0999 187.298 82.1119C187.053 82.4492 186.807 82.8172 186.562 83.2159C186.347 83.6146 186.209 83.8752 186.148 83.9979C186.148 84.1512 185.826 84.6726 185.182 85.5619C184.569 86.4512 184.001 87.1872 183.48 87.7699C182.775 88.5059 182.192 89.0426 181.732 89.3799C181.272 89.6866 180.843 89.8399 180.444 89.8399C179.923 89.8399 179.355 89.5486 178.742 88.9659C178.343 88.5366 178.052 88.0306 177.868 87.4479C177.715 86.8652 177.638 86.1446 177.638 85.2859C177.638 84.5192 177.745 83.2312 177.96 81.4219C177.991 81.2686 178.282 79.6279 178.834 76.4999C179.417 73.3412 179.769 71.6086 179.892 71.3019C179.923 71.1179 179.938 70.9032 179.938 70.6579C179.938 70.3819 179.892 70.2439 179.8 70.2439C179.708 70.2439 179.539 70.4432 179.294 70.8419C179.202 70.9646 178.65 71.8232 177.638 73.4179C176.657 75.0126 175.599 77.0519 174.464 79.5359C172.685 82.8172 171.367 85.2859 170.508 86.9419C169.649 88.5672 169.021 89.7326 168.622 90.4379C168.101 91.4499 167.794 92.0019 167.702 92.0939C167.242 92.0939 166.659 91.7106 165.954 90.9439C165.862 90.7599 165.816 90.5912 165.816 90.4379C165.816 90.2232 165.908 89.8706 166.092 89.3799C166.307 88.8892 166.598 88.2452 166.966 87.4479C167.917 85.5772 168.545 84.5192 168.852 84.2739C169.22 83.7832 169.435 83.2466 169.496 82.6639C169.895 82.1119 170.462 81.1152 171.198 79.6739C171.658 78.9379 172.195 78.0179 172.808 76.9139C173.452 75.8099 174.019 74.7519 174.51 73.7399L175.798 71.4859C176.994 69.4006 177.945 67.7906 178.65 66.6559C179.386 65.5212 179.938 64.7699 180.306 64.4019C180.797 63.8192 181.042 63.3592 181.042 63.0219C181.042 62.3779 181.165 61.7952 181.41 61.2739C181.686 60.7219 181.962 60.4766 182.238 60.5379C182.606 60.5379 182.897 60.5839 183.112 60.6759C183.357 60.7372 183.603 60.9212 183.848 61.2279C183.909 61.3199 184.001 61.4732 184.124 61.6879C184.277 61.8719 184.385 62.0866 184.446 62.3319C184.538 62.5466 184.584 62.8226 184.584 63.1599C184.584 63.5279 184.538 63.9879 184.446 64.5399C184.415 64.9386 184.293 65.8432 184.078 67.2539C183.955 67.9286 183.894 68.3426 183.894 68.4959C183.097 70.9186 182.376 73.9546 181.732 77.6039C181.119 81.2226 180.812 83.7679 180.812 85.2399C180.812 85.5772 180.843 85.8072 180.904 85.9299C181.119 86.0832 181.303 86.0986 181.456 85.9759C181.64 85.8532 181.901 85.4546 182.238 84.7799C182.637 84.0439 183.311 83.0932 184.262 81.9279C184.323 81.8359 184.921 80.8239 186.056 78.8919C188.877 74.2612 191.622 69.6152 194.29 64.9539L195.486 63.0679C195.946 62.3319 196.391 61.6572 196.82 61.0439C197.249 60.3999 197.587 59.9859 197.832 59.8019C198.139 59.5566 198.43 59.4339 198.706 59.4339C199.289 59.4339 199.81 59.7866 200.27 60.4919C200.73 61.1972 200.96 62.0866 200.96 63.1599C200.96 63.9879 200.791 65.2606 200.454 66.9779C200.117 68.6646 199.672 70.3666 199.12 72.0839C198.936 72.9426 198.675 74.0159 198.338 75.3039C198.001 76.5919 197.648 77.7572 197.28 78.7999C197.219 79.3212 197.096 79.9806 196.912 80.7779C196.881 80.9312 196.789 81.4066 196.636 82.2039C196.513 82.9706 196.483 83.4919 196.544 83.7679C196.084 84.5959 195.854 86.2519 195.854 88.7359L195.716 89.7939C195.655 90.6526 195.593 91.2352 195.532 91.5419C195.471 91.8486 195.379 91.9866 195.256 91.9559C195.195 91.9252 195.103 91.9099 194.98 91.9099C194.765 91.9099 194.658 92.0019 194.658 92.1859ZM202.281 88.3219C202.189 88.1379 202.036 87.9539 201.821 87.7699C201.637 87.5552 201.545 87.4172 201.545 87.3559C201.545 87.0186 201.469 86.7579 201.315 86.5739C201.254 86.5126 201.223 86.3746 201.223 86.1599C201.223 85.6692 201.453 84.8412 201.913 83.6759C202.404 82.4799 203.033 81.1919 203.799 79.8119C203.983 79.6279 204.213 79.3059 204.489 78.8459C204.796 78.3859 204.995 78.1252 205.087 78.0639C205.087 77.9412 205.133 77.8339 205.225 77.7419C205.317 77.6192 205.425 77.5579 205.547 77.5579V77.2819C205.547 77.0059 206.053 76.3466 207.065 75.3039C208.077 74.2306 208.905 73.4946 209.549 73.0959C210.316 72.5746 211.098 72.3139 211.895 72.3139C212.447 72.3139 212.923 72.4672 213.321 72.7739C213.475 72.9579 214.18 73.6172 215.437 74.7519L217.139 76.2699L216.311 78.5699C216.035 79.3979 215.897 80.1492 215.897 80.8239C215.897 81.9892 216.235 83.1086 216.909 84.1819C217.063 84.5192 217.369 84.8412 217.829 85.1479C218.289 85.4546 218.749 85.6386 219.209 85.6999C219.884 85.8226 220.221 86.1599 220.221 86.7119C220.221 87.3252 219.945 87.6932 219.393 87.8159C219.271 87.8466 219.087 87.8619 218.841 87.8619C217.032 87.8619 215.468 86.5892 214.149 84.0439C214.027 83.8599 213.858 83.5226 213.643 83.0319C213.459 82.5412 213.352 82.2039 213.321 82.0199C213.137 82.2652 212.907 82.5566 212.631 82.8939C212.355 83.2312 212.095 83.5226 211.849 83.7679C208.507 87.1106 205.869 88.7819 203.937 88.7819C203.324 88.7819 202.772 88.6286 202.281 88.3219ZM203.937 85.7459C203.937 85.8992 204.091 85.9452 204.397 85.8839C204.735 85.8226 205.133 85.6692 205.593 85.4239C206.084 85.1786 206.575 84.8566 207.065 84.4579C209.703 82.1886 211.604 80.2106 212.769 78.5239L213.781 76.8679C213.475 76.2239 213.153 75.7639 212.815 75.4879C212.478 75.1812 212.171 75.0279 211.895 75.0279C211.251 75.0279 210.239 75.8406 208.859 77.4659C207.479 79.0606 206.222 80.9466 205.087 83.1239C204.811 83.6452 204.566 84.1819 204.351 84.7339C204.137 85.2552 203.999 85.5926 203.937 85.7459ZM227.053 89.4719C226.624 89.5332 226.302 89.5639 226.087 89.5639C224.953 89.5639 224.017 89.2112 223.281 88.5059C222.545 87.8006 222.177 86.8192 222.177 85.5619C222.055 84.2126 222.346 82.5412 223.051 80.5479C223.787 78.5546 224.707 76.8832 225.811 75.5339C226.578 74.6446 227.237 73.9239 227.789 73.3719C228.341 72.8199 228.847 72.4519 229.307 72.2679C229.951 71.9919 230.672 71.8539 231.469 71.8539C232.021 71.9766 232.558 72.2066 233.079 72.5439C233.631 72.8812 233.907 73.2186 233.907 73.5559L234.137 73.7859C234.321 73.7859 234.49 74.0159 234.643 74.4759C234.797 74.9052 234.873 75.3806 234.873 75.9019C234.873 76.3312 234.797 76.6992 234.643 77.0059C234.521 77.5886 234.306 78.0946 233.999 78.5239C233.723 78.9532 233.447 79.1679 233.171 79.1679C232.834 79.1679 232.665 79.2599 232.665 79.4439C232.665 79.5666 232.604 79.6279 232.481 79.6279C232.328 79.6279 232.144 79.5359 231.929 79.3519C231.715 79.1679 231.561 78.9532 231.469 78.7079C231.469 78.6159 231.531 78.3552 231.653 77.9259C231.776 77.4966 231.899 77.0212 232.021 76.4999C232.113 76.1319 232.159 75.8099 232.159 75.5339C232.159 74.9206 231.929 74.6139 231.469 74.6139C231.224 74.6139 230.979 74.6752 230.733 74.7979C229.507 75.4726 228.418 76.5459 227.467 78.0179C226.517 79.4899 225.719 81.5139 225.075 84.0899C224.922 84.7646 224.845 85.3012 224.845 85.6999C224.845 86.0066 224.861 86.2519 224.891 86.4359C224.953 86.6199 225.014 86.7272 225.075 86.7579C225.229 86.8192 225.551 86.8499 226.041 86.8499C227.176 86.8499 227.973 86.7119 228.433 86.4359C229.415 85.9146 230.503 85.2092 231.699 84.3199C231.822 84.2279 232.006 84.0746 232.251 83.8599C232.497 83.6146 232.727 83.4459 232.941 83.3539C233.156 83.0166 233.355 82.8172 233.539 82.7559C233.723 82.6639 234.015 82.6179 234.413 82.6179C234.812 82.7406 235.134 82.9092 235.379 83.1239C235.625 83.3079 235.625 83.4612 235.379 83.5839C235.287 83.5839 235.226 83.6146 235.195 83.6759C235.165 83.7372 235.149 83.7832 235.149 83.8139C235.211 83.9672 234.965 84.3506 234.413 84.9639C233.861 85.5772 233.248 86.1599 232.573 86.7119C231.899 87.2332 231.439 87.4939 231.193 87.4939C231.071 87.4939 230.963 87.5092 230.871 87.5399C230.779 87.5706 230.733 87.6472 230.733 87.7699C230.733 87.8926 230.258 88.1839 229.307 88.6439C228.387 89.0732 227.636 89.3492 227.053 89.4719ZM242.301 88.6439C241.994 88.7052 241.718 88.7359 241.473 88.7359C241.074 88.7359 240.706 88.7052 240.369 88.6439C240.032 88.5519 239.863 88.4446 239.863 88.3219C239.863 88.2299 239.848 88.1686 239.817 88.1379C239.786 88.1072 239.725 88.0919 239.633 88.0919C239.602 88.0612 239.51 87.9846 239.357 87.8619C239.204 87.7392 239.02 87.6319 238.805 87.5399C238.529 87.1106 238.391 86.6506 238.391 86.1599C238.391 85.6386 238.529 84.8259 238.805 83.7219C238.897 82.7406 239.357 81.5139 240.185 80.0419C241.013 78.5699 241.979 77.1746 243.083 75.8559C244.218 74.5372 245.23 73.6172 246.119 73.0959C246.579 72.6359 247.162 72.4059 247.867 72.4059C248.419 72.4059 248.94 72.5439 249.431 72.8199C249.86 73.0652 250.305 73.4792 250.765 74.0619C251.256 74.6446 251.639 75.2426 251.915 75.8559C252.038 76.3159 252.099 76.7606 252.099 77.1899C252.099 77.6499 252.038 78.3706 251.915 79.3519C251.762 79.9039 251.624 80.5786 251.501 81.3759C251.409 82.1732 251.363 82.8632 251.363 83.4459C251.302 83.8752 251.332 84.2279 251.455 84.5039C251.578 84.7492 251.746 84.8719 251.961 84.8719C252.114 84.8719 252.283 84.8259 252.467 84.7339C252.774 84.5806 253.111 84.5039 253.479 84.5039C253.816 84.5039 254.092 84.5959 254.307 84.7799C254.522 84.9639 254.629 85.2399 254.629 85.6079C254.629 86.1599 254.246 86.7119 253.479 87.2639C252.743 87.8159 252.038 88.0919 251.363 88.0919C250.903 88.0919 250.474 87.7392 250.075 87.0339C249.707 86.2979 249.339 85.3626 248.971 84.2279L248.695 83.1699L246.717 85.0559L245.659 86.1139C245.168 86.6046 244.892 86.8959 244.831 86.9879C244.494 87.5706 243.65 88.1226 242.301 88.6439ZM242.439 85.9299C243.175 85.5006 244.08 84.7492 245.153 83.6759C246.226 82.6026 247.116 81.5752 247.821 80.5939C248.772 79.3366 249.37 78.0946 249.615 76.8679C249.492 76.4999 249.293 76.1319 249.017 75.7639C248.741 75.3959 248.496 75.1966 248.281 75.1659C247.668 75.1659 247.024 75.5186 246.349 76.2239C245.674 76.9292 244.877 77.9106 243.957 79.1679L242.439 81.4219C242.255 81.6672 241.933 82.3266 241.473 83.3999C241.013 84.4426 240.783 85.0712 240.783 85.2859C240.783 85.9606 240.982 86.2979 241.381 86.2979C241.688 86.2979 242.04 86.1752 242.439 85.9299ZM259.568 88.5519C259.384 88.5519 259.123 88.4906 258.786 88.3679C258.449 88.2452 258.234 88.1379 258.142 88.0459C257.835 87.7392 257.682 87.3866 257.682 86.9879C257.682 86.3132 258.019 85.5006 258.694 84.5499C258.878 84.1819 259.338 82.9092 260.074 80.7319L260.994 78.2019C261.055 77.6806 261.025 77.3126 260.902 77.0979C260.779 76.8526 260.519 76.7146 260.12 76.6839H259.844C259.568 76.6839 259.384 76.6379 259.292 76.5459C259.2 76.4232 259.154 76.1319 259.154 75.6719C259.185 75.3039 259.277 75.0279 259.43 74.8439C259.583 74.6599 259.844 74.4452 260.212 74.1999C260.703 73.9546 261.209 73.8319 261.73 73.8319C262.221 73.8319 262.589 73.9392 262.834 74.1539C263.018 74.2766 263.141 74.5526 263.202 74.9819C263.294 75.3806 263.34 75.8099 263.34 76.2699C263.371 76.6992 263.401 77.0059 263.432 77.1899C263.585 77.0366 263.953 76.7299 264.536 76.2699C265.149 75.7792 265.671 75.3192 266.1 74.8899C266.621 74.5219 267.219 74.1692 267.894 73.8319C268.569 73.4946 269.044 73.3259 269.32 73.3259C269.657 73.3259 269.995 73.4179 270.332 73.6019C270.669 73.7552 270.899 73.9546 271.022 74.1999C271.298 74.6906 271.436 75.1352 271.436 75.5339C271.436 75.9632 271.267 76.3926 270.93 76.8219C270.654 77.1592 270.301 77.4199 269.872 77.6039C269.443 77.7879 269.136 77.8799 268.952 77.8799C268.768 77.8799 268.538 77.7419 268.262 77.4659C267.986 77.1899 267.833 76.9599 267.802 76.7759C267.802 76.6532 267.403 76.8986 266.606 77.5119C265.839 78.0946 265.241 78.6006 264.812 79.0299C264.321 79.6126 263.815 80.3792 263.294 81.3299C262.803 82.2806 262.067 83.7219 261.086 85.6539C260.994 85.8686 260.779 86.3899 260.442 87.2179C260.289 87.7086 260.151 88.0612 260.028 88.2759C259.905 88.4599 259.752 88.5519 259.568 88.5519ZM278.076 89.7019C277.708 89.7326 277.401 89.7172 277.156 89.6559C276.941 89.5639 276.619 89.3799 276.19 89.1039C274.871 88.0306 274.227 86.9726 274.258 85.9299C274.289 85.8379 274.304 85.6999 274.304 85.5159C274.304 85.3319 274.289 85.1939 274.258 85.1019C274.227 84.9792 274.212 84.9026 274.212 84.8719C274.089 84.7799 274.013 84.7186 273.982 84.6879C273.982 84.6266 273.997 84.5652 274.028 84.5039C274.089 84.4426 274.135 84.3812 274.166 84.3199C274.289 84.2892 274.35 84.2279 274.35 84.1359C274.35 84.0439 274.319 83.9366 274.258 83.8139C274.166 83.5686 274.212 83.0166 274.396 82.1579C274.611 81.2686 274.887 80.4406 275.224 79.6739C275.469 79.0912 275.853 78.3399 276.374 77.4199C276.926 76.4999 277.432 75.7946 277.892 75.3039C278.536 74.5679 279.119 74.0006 279.64 73.6019C280.192 73.2032 280.821 72.8812 281.526 72.6359C282.17 72.3599 282.615 72.2219 282.86 72.2219C283.167 72.2219 283.55 72.4059 284.01 72.7739C284.746 72.9886 285.298 73.2952 285.666 73.6939C286.065 74.0619 286.371 74.6446 286.586 75.4419C286.77 76.0859 286.862 76.8066 286.862 77.6039C286.862 79.3212 286.325 81.2072 285.252 83.2619C284.7 84.3659 284.163 85.2246 283.642 85.8379C283.121 86.4206 282.4 87.1106 281.48 87.9079C280.836 88.4292 280.269 88.8279 279.778 89.1039C279.318 89.3799 278.751 89.5792 278.076 89.7019ZM281.756 84.2279C282.4 83.2772 282.891 82.4186 283.228 81.6519C283.565 80.8546 283.841 79.8732 284.056 78.7079C284.087 78.5852 284.102 78.3399 284.102 77.9719C284.102 77.3586 284.041 76.7759 283.918 76.2239C283.795 75.6719 283.642 75.3806 283.458 75.3499C283.213 75.2579 282.983 75.2119 282.768 75.2119C282.063 75.2119 281.311 75.6259 280.514 76.4539C279.778 77.3126 279.134 78.3552 278.582 79.5819C278.061 80.7779 277.539 82.2499 277.018 83.9979C276.865 84.6112 276.788 85.1019 276.788 85.4699C276.788 86.0219 276.895 86.4666 277.11 86.8039C277.325 87.1106 277.631 87.2639 278.03 87.2639C278.521 87.2639 279.088 87.0186 279.732 86.5279C280.376 86.0066 281.051 85.2399 281.756 84.2279ZM291.855 87.9539C291.763 87.9539 291.594 87.8772 291.349 87.7239C291.134 87.5706 290.95 87.4172 290.797 87.2639C290.582 87.0492 290.444 86.8192 290.383 86.5739C290.352 86.3286 290.337 85.7612 290.337 84.8719C290.337 83.9212 290.521 82.8786 290.889 81.7439C291.288 80.6092 291.978 78.9686 292.959 76.8219L294.477 73.6019C294.569 73.3872 294.784 73.0806 295.121 72.6819H295.581C295.796 72.6819 296.026 72.8199 296.271 73.0959C296.547 73.3719 296.746 73.6939 296.869 74.0619C296.869 74.5526 296.792 75.0126 296.639 75.4419C296.516 75.8712 296.164 76.4692 295.581 77.2359C295.336 77.6039 295.044 78.1866 294.707 78.9839C294.37 79.7812 294.14 80.4559 294.017 81.0079C293.925 81.1612 293.802 81.4219 293.649 81.7899C293.526 82.1579 293.373 82.5412 293.189 82.9399L292.959 83.9519L296.041 80.7779C297.39 79.4286 298.479 78.4472 299.307 77.8339C300.166 77.2206 300.871 76.9139 301.423 76.9139C302.067 76.9139 302.588 77.3279 302.987 78.1559C303.263 78.6159 303.447 78.9839 303.539 79.2599C303.631 79.5052 303.677 79.9039 303.677 80.4559C303.677 80.6399 303.646 81.1612 303.585 82.0199V84.8719C304.014 84.7799 304.398 84.6572 304.735 84.5039C305.103 84.3506 305.379 84.2432 305.563 84.1819C306.268 83.8752 307.05 83.6912 307.909 83.6299C307.848 84.1512 307.618 84.7186 307.219 85.3319C306.82 85.9452 306.33 86.4666 305.747 86.8959C305.164 87.2946 304.597 87.4939 304.045 87.4939C303.616 87.4939 303.156 87.2946 302.665 86.8959C302.205 86.4972 301.868 86.0526 301.653 85.5619C301.53 85.2246 301.454 84.8106 301.423 84.3199C301.423 83.8292 301.423 83.1392 301.423 82.2499V80.5479C301.423 80.2412 301.331 80.0879 301.147 80.0879C301.024 80.0879 300.733 80.2719 300.273 80.6399C299.66 81.1919 298.663 82.1886 297.283 83.6299C295.964 85.0099 294.814 86.0832 293.833 86.8499C292.882 87.5859 292.223 87.9539 291.855 87.9539ZM315.324 69.8299C315.109 69.6152 314.925 69.2472 314.772 68.7259C314.619 68.2046 314.619 67.9439 314.772 67.9439C315.017 67.9132 315.293 67.6526 315.6 67.1619C315.937 66.6406 316.091 66.2112 316.06 65.8739C316.06 65.7512 316.106 65.6439 316.198 65.5519C316.29 65.4292 316.397 65.3526 316.52 65.3219C316.765 65.1686 316.98 65.0919 317.164 65.0919C317.685 65.0919 318.161 65.4599 318.59 66.1959C318.774 66.5946 318.866 66.9472 318.866 67.2539C318.866 67.5299 318.789 67.8212 318.636 68.1279C318.483 68.4039 318.207 68.7719 317.808 69.2319C317.287 69.9372 316.796 70.2899 316.336 70.2899C316.029 70.2899 315.692 70.1366 315.324 69.8299ZM310.862 88.5059C310.433 88.0766 310.218 87.4632 310.218 86.6659C310.218 86.2366 310.295 85.8686 310.448 85.5619C310.448 85.4086 310.479 85.2246 310.54 85.0099C310.601 84.7952 310.632 84.6572 310.632 84.5959C310.601 84.4119 310.724 83.9059 311 83.0779C311.552 81.8512 312.288 79.6892 313.208 76.5919C313.208 76.4386 313.269 76.3159 313.392 76.2239C313.515 76.1012 313.699 76.0246 313.944 75.9939C314.189 75.9326 314.358 75.9019 314.45 75.9019C314.634 75.9019 314.787 75.9786 314.91 76.1319C315.063 76.2546 315.263 76.4999 315.508 76.8679C315.692 77.0519 315.784 77.3279 315.784 77.6959C315.784 78.2786 315.585 78.9839 315.186 79.8119C314.787 80.7012 314.527 81.4679 314.404 82.1119C314.036 82.9399 313.745 83.7066 313.53 84.4119C313.469 84.5959 313.377 84.9639 313.254 85.5159C313.131 86.0679 312.963 86.5126 312.748 86.8499C312.564 87.7086 312.395 88.3066 312.242 88.6439C312.089 88.9812 311.92 89.1499 311.736 89.1499C311.521 89.1499 311.23 88.9352 310.862 88.5059Z" fill="#C56A6E"/>
</svg>
