<svg width="142" height="91" viewBox="0 0 142 91" fill="none" xmlns="http://www.w3.org/2000/svg">
<path d="M47.7324 23.9882C53.0422 14.17 63.536 6.13662 72.0653 16.6647C75.6821 21.129 79.5703 28.3707 79.9795 34.2421C80.3914 40.1525 73.0667 45.3665 69.2444 48.6978C64.6886 52.6685 61.6904 56.9002 60.9235 63.0524C60.3632 67.5469 65.1116 80.4391 62.8778 76.4989C59.6749 70.8494 54.7846 67.2804 49.8033 63.2229C39.7068 54.9989 29.8547 47.0906 22.3201 36.3061C18.014 30.1426 13.002 23.2312 12.5476 15.4508C12.391 12.7696 12.2687 6.99255 15.631 6.05921C21.8283 4.33892 29.0685 5.28615 34.0821 9.66278C40.5552 15.3135 45.8753 22.5572 52.6186 27.7533" stroke="#CD787C" stroke-width="3" stroke-linecap="round" stroke-linejoin="round"/>
<path d="M91.8892 46.7999C97.5891 39.7643 104.602 45.1328 108.15 51.6941C112.657 48.2217 112.947 45.897 117.273 42.1207C120.623 39.1959 125.133 37 128 39C130.247 39.6237 133.5 46.7997 133.5 46.7997C136.5 54 126.5 62 126.5 62C126.5 62 113.514 72.4178 106.766 77.9137C103.438 80.6252 100.169 83.0104 98.029 86.7858C96.5362 89.4189 99.7094 80.8034 99.335 77.7998C98.8225 73.6885 96.8189 70.8604 93.7743 68.2069C91.22 65.9807 86.3251 62.4963 86.6003 58.5465C86.8738 54.6228 89.4722 49.7834 91.8892 46.7999Z" stroke="#CD787C" stroke-width="3" stroke-linecap="round" stroke-linejoin="round"/>
</svg>
