<svg width="458" height="204" viewBox="0 0 458 204" fill="none" xmlns="http://www.w3.org/2000/svg">
<path d="M3.03679 77.3075C0.347416 144.633 146.006 144.633 146.006 144.633H249.014L227.101 196L300.511 144.633C300.511 144.633 455 136.654 455 77.3075C455 9.98191 317.478 3 237.494 3C157.51 3 5.22813 22.4496 3.03679 77.3075Z" fill="#FCF7F4" stroke="#060000" stroke-opacity="0.7" stroke-width="5"/>
<path d="M56.06 95.208C55.9067 95.208 55.738 95.1467 55.554 95.024C55.4007 94.932 55.2627 94.794 55.14 94.61C54.8947 94.426 54.772 94.15 54.772 93.782C54.772 93.0767 55.2933 91.2213 56.336 88.216C56.5507 87.3573 56.7807 86.5293 57.026 85.732C57.2407 85.18 57.348 84.766 57.348 84.49C57.348 84.2447 57.3787 83.9687 57.44 83.662C57.532 83.3247 57.578 83.0947 57.578 82.972C57.946 82.972 58.2833 82.3433 58.59 81.086C58.7127 80.626 58.82 80.2427 58.912 79.936C59.004 79.5987 59.0653 79.338 59.096 79.154C59.1573 79.062 59.2187 78.924 59.28 78.74C59.372 78.556 59.4487 78.3873 59.51 78.234C59.7553 77.498 60.0467 76.7927 60.384 76.118C60.752 74.738 61.1813 73.2967 61.672 71.794C62.1933 70.2607 62.6227 69.126 62.96 68.39L63.512 67.01C63.5427 66.918 63.604 66.7493 63.696 66.504C63.8187 66.228 63.88 66.0287 63.88 65.906C63.88 65.7833 63.834 65.6913 63.742 65.63C63.5887 65.538 63.512 65.3847 63.512 65.17C63.512 64.7713 63.88 64.25 64.616 63.606C64.984 63.146 65.2907 62.8547 65.536 62.732C65.812 62.5787 66.18 62.502 66.64 62.502L68.112 62.594C68.48 62.6247 69.4613 62.64 71.056 62.64C71.3933 62.7933 71.792 62.9467 72.252 63.1C73.172 63.4067 73.632 63.6213 73.632 63.744C73.632 63.8973 73.678 64.0047 73.77 64.066C73.8927 64.1273 74.0613 64.1733 74.276 64.204C74.5827 64.204 75.058 64.5567 75.702 65.262C76.3767 65.9367 76.8827 66.642 77.22 67.378C77.4347 67.8687 77.588 68.2827 77.68 68.62C77.8027 68.9267 77.864 69.2947 77.864 69.724C77.864 70.184 77.8333 70.552 77.772 70.828C77.7107 71.3187 77.634 71.794 77.542 72.254C77.45 72.714 77.3427 73.0053 77.22 73.128C76.7293 73.496 76.484 73.818 76.484 74.094C76.484 74.3393 76.0853 74.9833 75.288 76.026C74.5213 77.0687 73.7853 77.9273 73.08 78.602C72.2827 79.522 71.332 80.3347 70.228 81.04C66.6093 82.6653 64.0793 83.4473 62.638 83.386C61.6567 83.5393 61.0587 83.6773 60.844 83.8C60.6293 83.892 60.4607 84.1373 60.338 84.536C60.1847 84.9347 60.0313 85.3487 59.878 85.778C59.7553 86.2073 59.694 86.4833 59.694 86.606C59.51 86.9433 59.096 88.078 58.452 90.01C57.8387 91.942 57.4247 93.3833 57.21 94.334C57.0873 94.7327 56.9493 94.978 56.796 95.07C56.6427 95.162 56.3973 95.208 56.06 95.208ZM61.764 80.948C61.8253 81.0093 62.0247 81.04 62.362 81.04C62.7607 81.04 63.282 80.9787 63.926 80.856C64.6007 80.7333 65.2447 80.5493 65.858 80.304C66.962 79.936 68.1887 79.338 69.538 78.51C69.9367 78.234 70.4273 77.82 71.01 77.268C71.6233 76.716 72.206 76.0873 72.758 75.382C72.942 75.0753 73.31 74.3547 73.862 73.22C74.1073 72.7907 74.3373 72.2387 74.552 71.564C74.7973 70.8893 74.92 70.2913 74.92 69.77C74.92 69.5247 74.9047 69.3407 74.874 69.218C74.7207 68.4207 74.3067 67.6847 73.632 67.01C72.988 66.3047 72.2367 65.8293 71.378 65.584C70.734 65.4613 70.1513 65.4 69.63 65.4C69.2313 65.4 68.7713 65.446 68.25 65.538C67.7593 65.6913 67.3913 65.906 67.146 66.182C66.9313 66.458 66.64 67.0407 66.272 67.93C65.5667 69.2793 64.9227 70.7513 64.34 72.346C63.788 74.4007 63.236 76.1027 62.684 77.452C62.132 78.8013 61.81 79.5833 61.718 79.798V79.982C61.718 80.166 61.7027 80.35 61.672 80.534C61.6413 80.718 61.672 80.856 61.764 80.948ZM77.9255 95.346C77.6495 95.2233 77.3275 94.978 76.9595 94.61C76.2848 94.1807 75.7788 93.69 75.4415 93.138C75.1041 92.586 74.9201 91.8347 74.8895 90.884C74.8895 90.6387 75.0888 90.3013 75.4875 89.872C75.9168 89.412 76.3768 89.182 76.8675 89.182C77.1435 89.182 77.4195 89.274 77.6955 89.458C77.4195 90.3473 77.2815 90.9453 77.2815 91.252C77.2815 91.6507 77.4195 91.9727 77.6955 92.218C78.0021 92.4327 78.5235 92.6167 79.2595 92.77C79.6888 92.862 80.0875 92.908 80.4555 92.908C80.9461 92.908 81.6208 92.8313 82.4795 92.678C83.3381 92.6167 83.9975 92.5553 84.4575 92.494C84.9175 92.402 85.2548 92.264 85.4695 92.08C86.3588 91.712 87.1561 91.2827 87.8615 90.792C88.5668 90.2707 89.0421 89.7493 89.2875 89.228C89.5941 88.8293 89.7781 88.5073 89.8395 88.262C89.9008 88.0167 89.9315 87.7253 89.9315 87.388C89.9315 87.0507 89.9315 86.8053 89.9315 86.652C89.9008 85.6707 89.8241 84.996 89.7015 84.628C89.5788 84.2293 89.1801 83.3247 88.5055 81.914C88.5055 81.73 88.2141 81.316 87.6315 80.672C87.0488 79.9973 86.6655 79.5527 86.4815 79.338C86.0828 78.51 85.7455 77.866 85.4695 77.406C85.2241 76.946 84.9175 76.5933 84.5495 76.348C84.4575 76.2253 84.3348 75.9647 84.1815 75.566C84.0281 75.1673 83.9208 74.9527 83.8595 74.922C83.8288 74.8913 83.7828 74.8147 83.7215 74.692C83.6601 74.5387 83.5835 74.3547 83.4915 74.14C83.2461 73.588 83.1235 73.0053 83.1235 72.392C83.1235 71.5333 83.3075 70.644 83.6755 69.724C84.0741 68.7733 84.6415 67.884 85.3775 67.056C85.7148 66.4733 86.3281 65.768 87.2175 64.94C88.1375 64.0813 88.6895 63.652 88.8735 63.652C88.9348 63.6213 89.0575 63.5753 89.2415 63.514C89.4561 63.422 89.6861 63.284 89.9315 63.1C90.2075 63.0387 90.5908 62.916 91.0815 62.732C91.5721 62.5173 91.9861 62.41 92.3235 62.41C92.7835 62.2567 93.1515 62.1493 93.4275 62.088C93.7341 61.996 94.0408 61.95 94.3475 61.95L95.6815 62.042C97.2148 62.4407 98.1655 63.238 98.5335 64.434L98.8555 66.412L96.9235 67.838C96.5555 67.9607 96.0955 68.022 95.5435 68.022C95.1755 68.022 94.8535 68.0067 94.5775 67.976C94.3015 67.9453 94.1175 67.9147 94.0255 67.884C93.8721 67.884 93.7955 67.8073 93.7955 67.654C93.7955 67.562 93.8261 67.4853 93.8875 67.424C93.9795 67.3627 94.0715 67.332 94.1635 67.332C94.2555 67.24 94.4088 67.0867 94.6235 66.872C94.8381 66.6267 95.0528 66.3967 95.2675 66.182C95.4821 65.8447 95.5895 65.5687 95.5895 65.354C95.5895 65.2007 95.5281 65.1087 95.4055 65.078C95.3135 65.0167 95.1295 64.986 94.8535 64.986L93.6575 65.078C92.5535 65.1393 91.5108 65.4307 90.5295 65.952C89.5481 66.4427 88.7355 67.1633 88.0915 68.114C87.3555 68.758 86.8035 69.4327 86.4355 70.138C86.0675 70.8433 85.8835 71.472 85.8835 72.024C86.0368 72.76 86.2975 73.4653 86.6655 74.14L89.2875 77.774C89.9928 78.6633 90.3455 79.1693 90.3455 79.292V79.522C90.4068 79.522 90.6521 79.936 91.0815 80.764C91.5108 81.592 91.7255 82.0827 91.7255 82.236L92.1395 83.202C92.2928 83.3553 92.4461 83.9993 92.5995 85.134C92.7528 86.2687 92.8295 87.1427 92.8295 87.756C92.7988 88.2773 92.5995 88.86 92.2315 89.504C91.8941 90.148 91.4648 90.746 90.9435 91.298C90.2995 91.9727 89.3641 92.724 88.1375 93.552C86.9108 94.38 85.8528 94.9013 84.9635 95.116C84.4421 95.3 83.7521 95.4533 82.8935 95.576C82.0655 95.6987 81.2375 95.76 80.4095 95.76C79.0295 95.76 78.2015 95.622 77.9255 95.346ZM108.115 93.966C107.44 94.1193 106.842 94.196 106.321 94.196C104.603 94.196 102.993 93.7207 101.491 92.77C100.019 91.7887 99.0528 90.5313 98.5928 88.998C98.2248 88.1087 98.1481 87.664 98.3628 87.664C98.5161 87.664 98.5928 87.618 98.5928 87.526C98.5928 87.434 98.5314 87.3267 98.4088 87.204C98.3474 87.1427 98.3168 86.974 98.3168 86.698C98.3168 86.422 98.3628 86.146 98.4548 85.87C98.5774 85.594 98.7154 85.456 98.8688 85.456C99.1754 85.456 99.5128 85.6093 99.8808 85.916C100.249 86.2227 100.341 86.4373 100.157 86.56C100.187 86.652 100.249 86.8513 100.341 87.158C100.433 87.4647 100.463 87.802 100.433 88.17C100.494 88.2927 100.617 88.5073 100.801 88.814C100.985 89.1207 101.184 89.3813 101.399 89.596C101.613 89.8107 101.905 90.0253 102.273 90.24C102.794 90.608 103.208 90.8687 103.515 91.022C103.852 91.1447 104.389 91.206 105.125 91.206C105.738 91.206 106.213 91.068 106.551 90.792C106.888 90.516 107.348 89.964 107.931 89.136C108.053 88.2773 107.731 86.652 106.965 84.26C106.229 81.8373 105.232 79.2 103.975 76.348C103.791 75.98 103.637 75.6427 103.515 75.336C103.392 75.0293 103.315 74.83 103.285 74.738C103.315 74.5847 103.331 74.3547 103.331 74.048C103.331 73.7413 103.285 73.4347 103.193 73.128C103.039 72.9747 102.932 72.438 102.871 71.518L102.779 70.506C102.84 69.7087 102.901 69.1567 102.963 68.85C103.055 68.5127 103.254 68.114 103.561 67.654C104.481 66.3047 105.585 65.216 106.873 64.388C108.191 63.5293 109.817 62.9467 111.749 62.64C112.147 62.548 112.699 62.502 113.405 62.502C114.141 62.502 114.877 62.5633 115.613 62.686C116.349 62.778 116.855 62.916 117.131 63.1C117.836 63.4373 118.403 63.8207 118.833 64.25C119.262 64.6793 119.645 65.1853 119.983 65.768C120.197 66.1973 120.305 66.5193 120.305 66.734C120.305 66.918 120.167 67.24 119.891 67.7C119.523 68.0987 118.848 68.574 117.867 69.126C116.885 69.678 116.011 70.0153 115.245 70.138C115.03 70.23 114.877 70.2913 114.785 70.322C114.723 70.322 114.693 70.2607 114.693 70.138C114.785 69.9847 114.815 69.862 114.785 69.77C114.754 69.678 114.723 69.6167 114.693 69.586C114.447 69.586 114.325 69.5247 114.325 69.402C114.325 69.2487 114.447 69.0033 114.693 68.666C114.969 68.3287 115.291 67.9453 115.659 67.516C116.272 66.8413 116.64 66.412 116.763 66.228C116.885 66.0133 116.885 65.8293 116.763 65.676C116.456 65.4613 115.613 65.354 114.233 65.354C113.435 65.354 112.761 65.4 112.209 65.492C110.614 65.952 109.249 66.6267 108.115 67.516C106.98 68.3747 106.305 69.31 106.091 70.322C105.876 70.8127 105.769 71.196 105.769 71.472C105.769 71.8707 105.907 72.484 106.183 73.312C106.244 74.0787 106.305 74.692 106.367 75.152C106.459 75.5813 106.505 75.8113 106.505 75.842C106.505 75.934 106.535 76.118 106.597 76.394C106.658 76.67 106.704 77.0687 106.735 77.59C106.949 78.234 107.517 78.9087 108.437 79.614C108.529 80.3807 108.667 81.04 108.851 81.592C108.973 82.0827 109.05 82.4507 109.081 82.696C109.694 83.984 110.169 85.3027 110.507 86.652C110.875 88.0013 111.059 89.0593 111.059 89.826C111.059 90.3473 110.982 90.608 110.829 90.608C110.798 90.608 110.783 90.654 110.783 90.746C110.783 90.838 110.798 90.884 110.829 90.884C110.829 91.1907 110.507 91.6813 109.863 92.356C109.219 93 108.636 93.5367 108.115 93.966ZM121.378 90.608C120.795 90.8227 120.351 90.93 120.044 90.93C119.615 90.93 119.155 90.746 118.664 90.378C118.235 89.9487 118.02 89.5193 118.02 89.09C118.02 88.4153 118.541 87.7253 119.584 87.02C120.197 86.652 120.642 86.468 120.918 86.468C121.071 86.468 121.439 86.5753 122.022 86.79C122.85 87.2807 123.264 87.848 123.264 88.492C123.264 88.86 123.095 89.228 122.758 89.596C122.451 89.964 121.991 90.3013 121.378 90.608ZM130.497 90.608C129.914 90.8227 129.47 90.93 129.163 90.93C128.734 90.93 128.274 90.746 127.783 90.378C127.354 89.9487 127.139 89.5193 127.139 89.09C127.139 88.4153 127.66 87.7253 128.703 87.02C129.316 86.652 129.761 86.468 130.037 86.468C130.19 86.468 130.558 86.5753 131.141 86.79C131.969 87.2807 132.383 87.848 132.383 88.492C132.383 88.86 132.214 89.228 131.877 89.596C131.57 89.964 131.11 90.3013 130.497 90.608ZM166.627 95.438C166.228 95.4687 165.86 95.3767 165.523 95.162C165.216 94.978 165.001 94.7327 164.879 94.426C164.695 94.242 164.495 93.966 164.281 93.598C164.066 93.23 163.928 92.8773 163.867 92.54C163.744 91.068 163.683 89.9947 163.683 89.32C163.683 88.4613 163.729 87.296 163.821 85.824C163.913 84.4133 164.081 83.0947 164.327 81.868C164.603 80.6107 164.971 79.0773 165.431 77.268C165.615 76.6853 165.753 76.1947 165.845 75.796C165.937 75.3667 165.937 75.152 165.845 75.152C165.691 75.1827 165.415 75.5813 165.017 76.348C164.618 77.084 164.219 77.8813 163.821 78.74C163.637 79.0773 163.453 79.4453 163.269 79.844C163.115 80.212 162.947 80.5647 162.763 80.902C161.904 82.8033 160.325 85.686 158.025 89.55C157.749 89.8873 157.365 90.424 156.875 91.16C155.924 92.6013 155.142 93.598 154.529 94.15C153.762 94.886 152.995 95.254 152.229 95.254C151.677 95.254 151.217 95.07 150.849 94.702C150.45 94.2113 150.251 93.736 150.251 93.276C150.251 93.1533 150.281 92.9387 150.343 92.632C150.251 91.8653 150.327 90.3013 150.573 87.94C150.849 85.548 151.125 83.5547 151.401 81.96C151.615 80.488 152.091 78.0653 152.827 74.692L153.839 69.724C154.023 69.264 154.314 68.344 154.713 66.964L155.127 65.446C155.157 64.894 155.28 64.4953 155.495 64.25C155.709 63.974 155.97 63.836 156.277 63.836C156.706 63.836 157.074 64.0353 157.381 64.434C157.871 64.986 158.117 65.6453 158.117 66.412C158.117 67.0253 157.979 67.654 157.703 68.298C156.323 71.6713 155.219 76.118 154.391 81.638C154.084 83.4473 153.793 85.3947 153.517 87.48C153.271 89.5347 153.21 90.5773 153.333 90.608C153.578 90.6693 153.915 90.4853 154.345 90.056C154.774 89.596 155.157 88.998 155.495 88.262C157.58 84.7967 160.018 80.35 162.809 74.922C162.87 74.83 163.545 73.5727 164.833 71.15L165.937 69.08C166.029 68.896 166.136 68.6967 166.259 68.482C166.412 68.2367 166.565 67.9913 166.719 67.746C167.393 66.4887 167.915 65.5533 168.283 64.94C168.681 64.3267 168.988 63.974 169.203 63.882C169.724 63.9127 170.153 64.0507 170.491 64.296C170.828 64.5107 171.119 64.894 171.365 65.446C171.395 65.5993 171.365 65.86 171.273 66.228C171.211 66.5653 171.119 66.8873 170.997 67.194C170.935 67.378 170.782 67.838 170.537 68.574C170.322 69.31 170.138 70.046 169.985 70.782C169.402 72.3153 168.973 73.8027 168.697 75.244C168.482 76.348 168.252 77.4213 168.007 78.464C167.485 80.8253 167.087 82.7727 166.811 84.306C166.565 85.8393 166.427 87.2193 166.397 88.446C166.366 90.01 166.458 91.068 166.673 91.62C166.765 91.9267 166.995 92.08 167.363 92.08C167.639 92.08 167.869 91.9727 168.053 91.758C168.942 90.5927 169.678 89.5653 170.261 88.676C170.843 87.7867 171.472 86.7287 172.147 85.502C174.017 82.006 176.241 77.2067 178.817 71.104C179.798 68.2827 180.457 66.4427 180.795 65.584C181.163 64.7253 181.577 64.1733 182.037 63.928C182.221 63.8053 182.405 63.744 182.589 63.744C182.926 63.744 183.233 63.8667 183.509 64.112C183.631 64.2347 183.739 64.434 183.831 64.71C183.953 64.986 183.999 65.2927 183.969 65.63C183.662 66.7033 182.941 68.712 181.807 71.656C180.703 74.5693 179.844 76.6853 179.231 78.004C179.108 78.2187 178.863 78.6327 178.495 79.246C178.433 79.338 178.295 79.568 178.081 79.936C177.897 80.2733 177.805 80.534 177.805 80.718C177.805 81.0247 176.992 82.6347 175.367 85.548C173.772 88.4307 172.591 90.3627 171.825 91.344C170.813 92.632 169.785 93.6287 168.743 94.334C167.731 95.07 167.025 95.438 166.627 95.438ZM179.102 94.518C178.764 94.334 178.519 94.1653 178.366 94.012C178.243 93.8587 178.182 93.6593 178.182 93.414C178.182 93.1073 178.304 92.678 178.55 92.126C178.826 91.5433 179.286 90.6387 179.93 89.412C180.114 89.0133 180.466 88.308 180.988 87.296C182.766 83.892 183.656 82.0367 183.656 81.73C183.625 81.6687 183.61 81.5767 183.61 81.454C183.61 81.1473 183.855 80.8713 184.346 80.626C185.051 79.9207 185.634 79.1693 186.094 78.372C186.4 77.6973 186.814 76.9 187.336 75.98C187.857 75.0293 188.501 73.91 189.268 72.622C189.636 71.978 190.188 71.0427 190.924 69.816C192.058 67.792 193.515 65.584 195.294 63.192C195.999 62.2413 196.582 61.7813 197.042 61.812C197.624 61.812 198.268 62.088 198.974 62.64C199.71 63.1613 200.216 63.7593 200.492 64.434C200.614 64.6487 200.676 65.1087 200.676 65.814C200.676 66.7647 200.568 68.3747 200.354 70.644C200.292 71.0427 200.231 71.6713 200.17 72.53C200.078 73.91 199.94 75.382 199.756 76.946C199.418 80.3807 199.173 83.064 199.02 84.996C198.866 86.928 198.79 88.7373 198.79 90.424C198.79 91.2827 198.805 91.9113 198.836 92.31V92.632L198.79 93.69C198.606 93.874 198.33 93.966 197.962 93.966C197.532 93.966 197.118 93.8587 196.72 93.644C196.321 93.46 196.091 93.23 196.03 92.954C195.999 92.9233 195.953 92.8927 195.892 92.862C195.83 92.8313 195.8 92.6933 195.8 92.448L195.846 91.436L195.984 88.86L196.214 81.408L195.616 81.454C195.002 81.454 193.638 81.5767 191.522 81.822C189.406 82.0673 188.087 82.2667 187.566 82.42C187.29 82.42 186.952 82.604 186.554 82.972C186.155 83.34 185.802 83.8153 185.496 84.398C185.404 84.7047 185.189 85.1493 184.852 85.732C184.514 86.284 184.346 86.606 184.346 86.698C184.162 86.8207 183.993 86.9893 183.84 87.204C183.717 87.388 183.64 87.5107 183.61 87.572C183.61 87.9093 183.288 88.768 182.644 90.148C182.03 91.528 181.417 92.678 180.804 93.598L179.838 95.07L179.102 94.518ZM188.624 79.706C188.808 79.6753 189.206 79.614 189.82 79.522C190.433 79.3993 190.985 79.3227 191.476 79.292C193.684 78.7707 195.033 78.51 195.524 78.51C195.738 78.51 195.938 78.556 196.122 78.648C196.214 78.7707 196.306 78.8627 196.398 78.924C196.52 78.9547 196.597 78.97 196.628 78.97C196.689 78.786 196.873 77.13 197.18 74.002C197.517 70.8433 197.701 68.7427 197.732 67.7L197.87 65.4C197.686 65.4 197.287 65.7527 196.674 66.458C196.06 67.1633 195.37 68.0833 194.604 69.218C193.868 70.322 193.208 71.4567 192.626 72.622C192.319 73.174 192.012 73.6953 191.706 74.186C191.43 74.646 191.23 74.876 191.108 74.876C190.893 75.0907 190.387 75.9187 189.59 77.36C188.792 78.8013 188.47 79.5833 188.624 79.706ZM205.146 94.794C204.962 94.9473 204.778 95.0853 204.594 95.208C204.441 95.3613 204.334 95.438 204.272 95.438C204.211 95.438 204.119 95.3613 203.996 95.208C203.904 95.0853 203.782 94.9013 203.628 94.656C203.352 94.472 203.168 94.288 203.076 94.104C202.984 93.92 202.923 93.7207 202.892 93.506C202.862 93.322 202.846 93.184 202.846 93.092C202.877 92.4787 203.306 90.8227 204.134 88.124C204.962 85.3947 205.714 83.202 206.388 81.546L207.308 79.108C207.523 78.5867 208.014 77.5593 208.78 76.026C209.547 74.4927 210.068 73.4653 210.344 72.944C210.252 72.7907 210.651 71.8247 211.54 70.046C212.46 68.2367 213.288 66.7033 214.024 65.446C214.454 64.7713 214.776 64.296 214.99 64.02C215.236 63.744 215.466 63.606 215.68 63.606C215.742 63.606 215.864 63.6367 216.048 63.698L216.416 63.652C216.876 63.652 217.336 63.7287 217.796 63.882C218.256 64.0353 218.502 64.2347 218.532 64.48C218.563 64.5107 218.578 64.6487 218.578 64.894C218.578 65.3847 218.517 65.9367 218.394 66.55C217.996 68.942 217.796 71.2113 217.796 73.358C217.796 75.106 217.95 77.774 218.256 81.362L219.222 86.514L220.05 84.996C220.449 84.26 220.986 83.11 221.66 81.546L222.166 80.35C222.381 79.7673 222.626 79.1693 222.902 78.556C223.178 77.912 223.362 77.498 223.454 77.314C223.884 76.7927 224.298 75.9033 224.696 74.646C225.126 73.3887 225.386 72.6373 225.478 72.392C225.509 72.2693 225.647 71.748 225.892 70.828C226.168 69.8773 226.444 69.2793 226.72 69.034C226.69 68.7887 226.797 68.1447 227.042 67.102C227.288 66.0593 227.487 65.2927 227.64 64.802C227.671 64.7713 227.748 64.6793 227.87 64.526C227.993 64.3727 228.116 64.1427 228.238 63.836L229.526 63.468C229.864 63.7133 230.094 63.9433 230.216 64.158C230.37 64.3727 230.446 64.618 230.446 64.894C230.446 65.354 230.247 65.9827 229.848 66.78C229.818 67.148 229.741 67.47 229.618 67.746C229.526 68.022 229.465 68.1907 229.434 68.252C229.557 68.252 229.618 68.3287 229.618 68.482C229.618 68.574 229.557 68.8653 229.434 69.356L228.284 73.634C228.1 74.4007 227.395 76.1487 226.168 78.878C224.972 81.5767 224.19 83.202 223.822 83.754C223.761 83.8767 223.654 84.0913 223.5 84.398C223.378 84.7047 223.255 84.9347 223.132 85.088C222.887 85.824 222.366 86.7747 221.568 87.94C220.771 89.1053 220.173 89.7953 219.774 90.01C219.437 90.3473 219.069 90.516 218.67 90.516C218.088 90.516 217.551 90.24 217.06 89.688C216.57 89.136 216.232 88.3847 216.048 87.434L215.68 84.628C215.619 84.2907 215.466 83.2633 215.22 81.546C215.006 79.8287 214.914 78.648 214.944 78.004C214.883 77.7587 214.852 77.406 214.852 76.946C214.852 76.5167 214.868 76.21 214.898 76.026C214.898 75.9033 214.898 75.7653 214.898 75.612C214.929 75.428 214.929 75.244 214.898 75.06C214.868 74.7227 214.898 74.0787 214.99 73.128C215.082 72.6067 215.128 72.07 215.128 71.518C215.19 70.9047 215.113 70.598 214.898 70.598C214.622 70.598 213.978 71.5333 212.966 73.404C212.752 73.9867 212.445 74.6153 212.046 75.29C211.648 75.9647 211.464 76.3327 211.494 76.394L208.044 84.49C207.554 85.502 207.048 87.0967 206.526 89.274C206.036 91.4513 205.76 92.632 205.698 92.816C205.729 92.9387 205.683 93.1687 205.56 93.506C205.438 93.874 205.3 94.3033 205.146 94.794ZM232.857 92.816C232.612 93.3987 232.274 93.69 231.845 93.69C231.354 93.69 230.956 93.3527 230.649 92.678C230.312 92.3713 230.143 91.8653 230.143 91.16C230.143 90.3627 230.312 89.6573 230.649 89.044C230.894 88.6453 231.078 87.8633 231.201 86.698C231.538 85.41 232.213 83.248 233.225 80.212L234.375 76.67C235.479 73.2353 236.43 70.5213 237.227 68.528C237.687 67.608 237.902 66.9487 237.871 66.55C237.963 66.1207 238.086 65.7373 238.239 65.4C238.392 65.0627 238.546 64.8173 238.699 64.664C238.883 64.4493 239.021 64.2807 239.113 64.158C239.236 64.0353 239.343 63.974 239.435 63.974C239.527 63.974 239.665 64.02 239.849 64.112C239.972 64.1427 240.171 64.1887 240.447 64.25C240.754 64.3113 240.999 64.4647 241.183 64.71C241.398 64.9247 241.612 65.308 241.827 65.86C242.103 66.32 242.302 66.7187 242.425 67.056C242.578 67.3933 242.655 67.8073 242.655 68.298C242.655 68.6353 242.64 68.896 242.609 69.08C242.64 69.6933 242.747 70.7207 242.931 72.162C242.962 72.4073 243.038 73.082 243.161 74.186C243.284 75.29 243.314 76.256 243.253 77.084C243.253 78.3413 243.406 80.212 243.713 82.696C244.05 85.1493 244.372 86.4833 244.679 86.698C245.047 86.9127 245.538 85.9773 246.151 83.892C246.243 83.5547 246.458 83.0793 246.795 82.466C247.102 81.8833 247.347 81.3773 247.531 80.948C247.715 80.5187 247.868 80.0127 247.991 79.43C248.574 77.9273 249.156 76.2407 249.739 74.37L250.613 71.748C250.705 71.3187 250.904 70.736 251.211 70C251.548 69.264 251.886 68.62 252.223 68.068L252.821 66.872C252.944 66.6267 253.112 66.2893 253.327 65.86C253.542 65.4 253.649 65.124 253.649 65.032C253.649 64.9707 253.664 64.8633 253.695 64.71C253.756 64.5567 253.848 64.434 253.971 64.342C254.032 64.2807 254.201 64.158 254.477 63.974C254.784 63.79 254.983 63.4987 255.075 63.1C255.351 62.8853 255.596 62.778 255.811 62.778L256.225 62.87C256.256 62.9007 256.317 62.9773 256.409 63.1C256.532 63.192 256.593 63.2993 256.593 63.422C256.593 63.6367 256.394 64.2347 255.995 65.216C255.811 66.412 255.52 67.3013 255.121 67.884C255.029 68.068 254.952 68.252 254.891 68.436C254.86 68.62 254.814 68.7733 254.753 68.896C254.569 69.448 254.416 69.8467 254.293 70.092C254.14 70.7667 254.063 71.1193 254.063 71.15C253.94 71.8247 253.879 72.1467 253.879 72.116L252.867 73.726C252.315 75.1673 251.763 76.808 251.211 78.648C250.843 79.936 250.46 81.086 250.061 82.098C250 82.5887 249.908 83.0487 249.785 83.478C249.662 83.9073 249.54 84.2447 249.417 84.49C249.294 84.7353 249.218 84.8887 249.187 84.95C249.187 85.2873 248.85 86.1153 248.175 87.434C247.5 88.7527 246.994 89.688 246.657 90.24C246.381 90.6693 246.12 90.9453 245.875 91.068C245.63 91.16 245.292 91.2213 244.863 91.252C244.311 91.3133 243.882 91.2213 243.575 90.976C243.268 90.7 242.9 90.102 242.471 89.182C241.735 87.71 241.183 86.2993 240.815 84.95C240.478 83.6007 240.309 81.6993 240.309 79.246C240.309 78.0193 240.278 77.176 240.217 76.716L240.079 75.382C239.895 73.6033 239.757 71.932 239.665 70.368C239.42 70.8587 239.159 71.518 238.883 72.346C238.638 73.1433 238.392 73.956 238.147 74.784C237.656 76.4093 237.258 77.6667 236.951 78.556C236.675 79.4147 236.338 80.166 235.939 80.81C235.816 81.6993 235.663 82.4813 235.479 83.156C235.326 83.8 235.157 84.2447 234.973 84.49C234.728 85.2873 234.528 86.1613 234.375 87.112L234.053 88.492C234.022 88.9827 233.823 89.7647 233.455 90.838C233.118 91.9113 232.918 92.5707 232.857 92.816ZM272.528 96.634C272.282 96.634 271.991 96.4347 271.654 96.036C271.286 95.668 271.102 95.116 271.102 94.38C271.102 92.9693 271.071 92.0033 271.01 91.482L270.964 88.354C270.964 87.526 271.01 87.0353 271.102 86.882C271.071 86.7287 271.056 86.4987 271.056 86.192C271.056 85.916 271.071 85.594 271.102 85.226C271.163 84.8273 271.194 84.5207 271.194 84.306L271.01 83.064H268.48C267.989 83.1253 267.468 83.156 266.916 83.156C265.842 83.156 264.125 83.0793 261.764 82.926L261.166 83.892C260.522 84.8733 260.031 85.778 259.694 86.606C259.019 88.354 258.36 89.7033 257.716 90.654C256.857 92.31 256.274 93.138 255.968 93.138H255.692C255.477 93.138 255.278 93.1073 255.094 93.046C254.94 93.0153 254.741 92.908 254.496 92.724C253.944 92.4787 253.668 92.1107 253.668 91.62C253.668 91.0067 254.02 90.2093 254.726 89.228L255.324 88.262C255.324 88.078 255.722 87.2193 256.52 85.686C257.317 84.1527 257.854 83.3247 258.13 83.202C258.406 82.926 258.544 82.65 258.544 82.374C258.544 82.0673 258.36 81.7607 257.992 81.454C257.808 81.362 257.716 81.2393 257.716 81.086C257.716 80.902 257.823 80.7333 258.038 80.58C258.252 80.4267 258.498 80.35 258.774 80.35C258.927 80.258 259.065 80.1813 259.188 80.12C259.341 80.0587 259.448 80.0127 259.51 79.982C259.602 79.9207 259.648 79.844 259.648 79.752C259.648 79.5987 260.016 78.8167 260.752 77.406C261.488 75.9647 262.055 74.9987 262.454 74.508C262.76 73.68 263.021 73.082 263.236 72.714C263.481 72.346 263.634 72.0853 263.696 71.932C263.849 71.7787 264.156 71.2727 264.616 70.414C264.677 70.322 264.876 69.9847 265.214 69.402C265.52 69.0953 265.827 68.7427 266.134 68.344C266.471 67.9147 266.686 67.6387 266.778 67.516C266.9 67.3013 267.084 67.0407 267.33 66.734C267.483 66.366 267.759 65.9213 268.158 65.4C268.556 64.848 268.802 64.5107 268.894 64.388C269.323 63.8973 269.66 63.56 269.906 63.376C270.182 63.1613 270.473 63.054 270.78 63.054C271.056 63.054 271.378 63.146 271.746 63.33C272.451 63.6367 272.972 64.1273 273.31 64.802C273.647 65.4767 273.862 66.458 273.954 67.746C273.984 67.9607 274.046 68.436 274.138 69.172C274.26 69.908 274.322 70.552 274.322 71.104C274.322 71.5027 274.276 71.8247 274.184 72.07V74.094C274.184 75.106 274.214 75.8573 274.276 76.348C274.184 76.6853 274.138 77.2373 274.138 78.004L274.184 79.798C274.184 80.258 274.168 80.6413 274.138 80.948L274.092 82.65L274.046 84.352C274.015 85.1187 274 86.0847 274 87.25L274.046 90.148V91.942C274.046 93.69 273.938 94.886 273.724 95.53C273.54 96.2047 273.141 96.5727 272.528 96.634ZM263.19 80.534C263.404 80.5033 263.849 80.4573 264.524 80.396C265.229 80.3347 265.934 80.3193 266.64 80.35C267.498 80.2887 268.081 80.258 268.388 80.258C268.786 80.258 269.2 80.2733 269.63 80.304C270.059 80.304 270.304 80.2887 270.366 80.258C270.948 80.2887 271.24 79.752 271.24 78.648C271.086 77.0533 271.01 74.7687 271.01 71.794C271.01 70.6593 271.025 69.8927 271.056 69.494C271.056 69.0033 271.025 68.528 270.964 68.068C270.933 67.608 270.902 67.3167 270.872 67.194C270.749 67.0407 270.197 67.5773 269.216 68.804C268.234 70 267.575 70.8893 267.238 71.472C267.054 71.7173 266.808 72.1467 266.502 72.76C266.348 73.0053 266.18 73.2967 265.996 73.634C265.842 73.9713 265.643 74.3393 265.398 74.738C263.772 77.2527 262.96 79.016 262.96 80.028C262.96 80.304 263.036 80.4727 263.19 80.534ZM292.774 94.426C291.946 93.9047 291.287 93.1687 290.796 92.218C290.336 91.2673 290.137 90.286 290.198 89.274C290.168 85.6553 290.796 81.8373 292.084 77.82C292.636 76.1947 293.311 74.4927 294.108 72.714C294.906 70.9047 295.58 69.5247 296.132 68.574C296.991 67.1633 297.942 65.9213 298.984 64.848C300.027 63.7747 300.87 63.054 301.514 62.686C301.913 62.4713 302.45 62.272 303.124 62.088C303.83 61.904 304.566 61.812 305.332 61.812C305.946 61.812 306.513 61.8733 307.034 61.996C307.77 62.18 308.491 62.4407 309.196 62.778C309.902 63.0847 310.377 63.3453 310.622 63.56C310.745 63.744 310.883 63.9587 311.036 64.204C311.22 64.4493 311.358 64.664 311.45 64.848C311.542 65.032 311.588 65.2313 311.588 65.446C311.619 65.7527 311.481 66.1207 311.174 66.55C310.898 66.9793 310.607 67.194 310.3 67.194C310.116 67.194 309.932 67.0867 309.748 66.872C309.442 66.412 309.135 66.0747 308.828 65.86C308.522 65.6147 308.2 65.4153 307.862 65.262C307.525 65.1087 307.28 64.986 307.126 64.894C306.728 64.6487 306.176 64.526 305.47 64.526C304.918 64.526 304.351 64.618 303.768 64.802C303.216 64.9553 302.741 65.2007 302.342 65.538C301.79 66.0287 301.116 66.7647 300.318 67.746C299.521 68.6967 298.908 69.586 298.478 70.414C296.638 73.634 295.335 76.67 294.568 79.522C294.323 80.4113 294.047 81.5307 293.74 82.88C293.434 84.2293 293.234 85.2413 293.142 85.916C292.958 87.0507 292.866 88.078 292.866 88.998C292.866 90.1327 293.05 91.0067 293.418 91.62C293.817 92.2027 294.461 92.494 295.35 92.494C295.964 92.494 296.715 92.3407 297.604 92.034C298.616 91.9113 299.766 91.3287 301.054 90.286C302.342 89.2127 303.416 88.0013 304.274 86.652C305.654 84.076 306.344 82.3433 306.344 81.454C306.344 80.8407 306.053 80.534 305.47 80.534C304.857 80.4727 304.09 80.442 303.17 80.442C302.557 80.442 302.082 80.4267 301.744 80.396C301.407 80.3653 301.1 80.2733 300.824 80.12C300.61 79.7827 300.502 79.4913 300.502 79.246C300.502 78.878 300.702 78.4947 301.1 78.096C301.53 77.912 302.373 77.82 303.63 77.82C305.409 77.82 306.804 78.0653 307.816 78.556C308.767 79.016 309.242 79.9513 309.242 81.362C309.242 82.0367 309.181 82.6347 309.058 83.156C308.782 84.352 307.847 86.146 306.252 88.538C305.547 89.5193 304.489 90.5927 303.078 91.758C301.698 92.8927 300.579 93.6287 299.72 93.966C298.034 94.7327 296.516 95.116 295.166 95.116C294.216 95.116 293.418 94.886 292.774 94.426ZM317.674 93.644C317.552 93.7053 317.398 93.736 317.214 93.736C317 93.736 316.647 93.7207 316.156 93.69C315.666 93.6593 314.899 93.6287 313.856 93.598C311.372 93.322 310.084 93.1687 309.992 93.138C309.962 93.138 309.9 93.1073 309.808 93.046C309.747 92.9847 309.609 92.8773 309.394 92.724C308.965 92.6013 308.612 92.3253 308.336 91.896C308.091 91.436 308.03 91.0373 308.152 90.7C308.183 90.608 308.336 90.516 308.612 90.424C308.888 90.332 309.18 90.286 309.486 90.286C309.64 90.286 309.762 90.3013 309.854 90.332C310.253 90.24 310.958 90.1633 311.97 90.102C312.829 90.0407 313.396 89.9793 313.672 89.918C313.918 89.826 314.163 89.7493 314.408 89.688C314.654 89.6267 314.868 89.5653 315.052 89.504C315.206 89.5347 315.344 89.458 315.466 89.274C315.589 89.0593 315.742 88.6913 315.926 88.17L316.248 87.25C316.647 86.238 317.107 84.9653 317.628 83.432C318.18 81.868 318.579 80.7333 318.824 80.028C318.794 79.7827 318.824 79.4607 318.916 79.062C319.039 78.6633 319.1 78.418 319.1 78.326C319.162 78.2647 319.269 77.9733 319.422 77.452C319.668 76.6853 319.944 75.9493 320.25 75.244C321.354 72.5453 321.906 71.0273 321.906 70.69L322.32 69.862C322.842 68.758 323.102 68.16 323.102 68.068L321.124 68.022C320.143 68.0833 319.131 67.9913 318.088 67.746C317.046 67.5007 316.432 67.2247 316.248 66.918C316.126 66.7647 316.064 66.6267 316.064 66.504C316.064 66.412 316.141 66.32 316.294 66.228C316.478 66.1053 316.616 65.9827 316.708 65.86C316.77 65.6147 317 65.4613 317.398 65.4C317.797 65.3387 318.579 65.2773 319.744 65.216H321.492C323.087 65.216 323.9 65.1393 323.93 64.986C324.298 64.986 324.636 64.9553 324.942 64.894C325.157 64.894 325.632 64.802 326.368 64.618C327.104 64.434 327.779 64.25 328.392 64.066C329.19 63.882 329.956 63.744 330.692 63.652C331.428 63.56 331.95 63.514 332.256 63.514L332.716 63.468C333.606 63.468 334.05 64.02 334.05 65.124C334.05 65.3387 334.02 65.492 333.958 65.584C333.897 65.6453 333.667 65.7067 333.268 65.768C332.9 65.8293 332.394 65.8907 331.75 65.952C330.064 66.228 328.914 66.458 328.3 66.642L327.058 67.056C326.813 67.056 326.598 67.1633 326.414 67.378C326.261 67.562 326.108 67.9147 325.954 68.436C325.924 68.4667 325.862 68.5127 325.77 68.574C325.709 68.6353 325.678 68.6967 325.678 68.758C325.678 68.8193 325.602 69.0033 325.448 69.31C325.295 69.586 325.172 69.8313 325.08 70.046C325.08 70.2607 324.927 70.7513 324.62 71.518C323.946 73.174 323.578 74.462 323.516 75.382C322.535 77.774 322.029 79.292 321.998 79.936C321.937 80.028 321.63 80.8867 321.078 82.512C320.373 84.72 319.944 85.8853 319.79 86.008C319.668 86.1307 319.576 86.33 319.514 86.606C319.484 86.8513 319.468 86.9893 319.468 87.02C319.192 87.848 319.054 88.5533 319.054 89.136C319.054 89.3507 319.07 89.4887 319.1 89.55C320.879 89.55 322.014 89.4887 322.504 89.366L324.758 89.274C325.372 89.274 325.816 89.32 326.092 89.412C326.368 89.4733 326.629 89.4887 326.874 89.458C327.334 89.4273 327.656 89.4887 327.84 89.642C328.024 89.7647 328.239 90.102 328.484 90.654C328.576 90.838 328.622 90.9913 328.622 91.114C328.622 91.2673 328.469 91.4053 328.162 91.528C328.04 91.62 327.81 91.6967 327.472 91.758C327.166 91.8193 326.874 91.8347 326.598 91.804L321.722 91.758H321.4L320.434 91.804C320.281 91.7733 320.051 91.7887 319.744 91.85C319.438 91.8807 319.116 91.9113 318.778 91.942C318.686 91.9727 318.579 92.0187 318.456 92.08C318.364 92.1107 318.288 92.1567 318.226 92.218C318.165 92.2793 318.119 92.3867 318.088 92.54C318.088 92.632 318.027 92.8007 317.904 93.046C317.782 93.322 317.705 93.5213 317.674 93.644ZM332.55 92.908L332.918 90.746C333.194 88.7527 333.501 86.9433 333.838 85.318C334.206 83.6927 334.452 82.88 334.574 82.88C334.697 82.8187 334.758 82.65 334.758 82.374C334.789 82.0673 334.804 81.8527 334.804 81.73L334.896 80.58L334.206 80.672C333.838 80.6107 333.624 80.534 333.562 80.442C333.501 80.35 333.47 80.074 333.47 79.614C333.501 79.2767 333.547 79.0467 333.608 78.924C333.7 78.8013 333.869 78.7247 334.114 78.694C334.636 78.51 335.157 78.2187 335.678 77.82C336.2 77.3907 336.445 77.038 336.414 76.762C336.445 76.302 336.69 75.3513 337.15 73.91C337.61 72.4687 338.116 71.2267 338.668 70.184C339.006 69.0493 339.174 68.3287 339.174 68.022C339.42 67.1327 339.542 66.642 339.542 66.55C339.665 66.2433 339.726 66.09 339.726 66.09C339.726 65.9673 339.634 65.906 339.45 65.906C339.358 65.906 339.128 65.9367 338.76 65.998C338.699 66.0287 338.53 66.0593 338.254 66.09C337.978 66.1207 337.702 66.1207 337.426 66.09C337.058 66.182 336.767 66.228 336.552 66.228C336.399 66.228 336.276 66.1973 336.184 66.136C336.092 66.0747 336.016 65.9673 335.954 65.814C335.709 65.5687 335.586 65.308 335.586 65.032C335.586 64.8787 335.632 64.756 335.724 64.664C335.816 64.5413 335.939 64.4953 336.092 64.526H336.184C336.368 64.526 336.583 64.4033 336.828 64.158C336.951 64.0353 337.258 63.8973 337.748 63.744C338.239 63.56 338.791 63.4527 339.404 63.422C339.834 63.3913 340.401 63.2687 341.106 63.054C341.842 62.8087 342.272 62.6247 342.394 62.502C342.394 62.3487 342.502 62.272 342.716 62.272C342.931 62.272 343.054 62.272 343.084 62.272C343.268 62.2413 343.514 62.2107 343.82 62.18C344.158 62.1187 344.372 62.1033 344.464 62.134C345.108 61.858 346.902 61.7353 349.846 61.766L350.996 61.858C351.395 61.858 351.594 61.7967 351.594 61.674C351.686 61.674 351.916 61.7047 352.284 61.766C352.683 61.8273 353.097 61.9193 353.526 62.042C354.6 62.1033 355.351 62.318 355.78 62.686C356.24 63.0233 356.486 63.6213 356.516 64.48L356.7 65.538L355.458 65.124C354.753 65.032 353.756 64.9247 352.468 64.802C351.211 64.6487 350.199 64.572 349.432 64.572C349.095 64.572 348.865 64.5873 348.742 64.618C348.497 64.618 348.175 64.6487 347.776 64.71C347.378 64.7407 347.04 64.7407 346.764 64.71C346.304 64.8327 345.829 64.894 345.338 64.894L344.786 64.848C344.602 64.9093 344.342 64.9707 344.004 65.032C343.698 65.0933 343.483 65.17 343.36 65.262C343.299 65.2927 343.192 65.354 343.038 65.446C342.885 65.5073 342.762 65.538 342.67 65.538H342.624C342.563 65.538 342.517 65.6607 342.486 65.906C342.456 66.1207 342.425 66.366 342.394 66.642C342.425 67.2553 342.379 67.792 342.256 68.252C342.134 68.6813 341.75 69.724 341.106 71.38L340.692 72.53C340.324 73.4193 340.094 74.094 340.002 74.554C339.665 75.474 339.343 76.1793 339.036 76.67C339.067 76.9767 339.128 77.13 339.22 77.13C339.312 77.13 339.435 77.0533 339.588 76.9C339.65 76.9307 339.757 76.946 339.91 76.946C340.094 76.946 340.34 76.8693 340.646 76.716C340.953 76.716 341.26 76.7467 341.566 76.808V76.762C341.566 76.67 341.72 76.624 342.026 76.624C342.364 76.5933 342.64 76.5627 342.854 76.532C343.069 76.4093 343.514 76.2867 344.188 76.164C344.679 76.0413 345.016 75.9493 345.2 75.888C345.568 75.7347 345.798 75.658 345.89 75.658C346.013 75.658 346.289 75.75 346.718 75.934C347.086 76.4247 347.27 77.0227 347.27 77.728C347.27 78.188 347.178 78.4947 346.994 78.648L345.568 79.154C345.476 79.1233 345.323 79.108 345.108 79.108C344.648 79.108 344.265 79.1847 343.958 79.338C343.437 79.6447 342.762 79.798 341.934 79.798C341.444 79.798 341.06 79.7827 340.784 79.752C340.631 79.8747 340.37 79.9667 340.002 80.028C339.665 80.0587 339.45 80.1047 339.358 80.166C339.266 80.166 339.082 80.1967 338.806 80.258C338.53 80.2887 338.346 80.2887 338.254 80.258C338.07 80.258 337.978 80.488 337.978 80.948C337.978 81.04 337.932 81.1473 337.84 81.27C337.779 81.3927 337.733 81.4693 337.702 81.5C337.58 81.592 337.488 81.684 337.426 81.776C337.396 81.868 337.38 81.9753 337.38 82.098C337.38 82.19 337.365 82.42 337.334 82.788C337.304 83.156 337.227 83.5087 337.104 83.846C336.706 85.134 336.368 86.3607 336.092 87.526C335.847 88.6913 335.786 89.3507 335.908 89.504C336.215 89.8107 336.476 89.9793 336.69 90.01C336.721 89.9793 336.767 89.964 336.828 89.964C336.951 89.964 337.058 90.0713 337.15 90.286C337.242 90.47 337.319 90.7 337.38 90.976C337.35 91.1907 336.92 91.8193 336.092 92.862C335.632 93.9353 335.142 94.472 334.62 94.472C334.252 94.472 333.792 94.2267 333.24 93.736L332.55 92.908ZM357.704 94.104C357.581 94.1347 357.397 94.15 357.152 94.15C356.692 94.15 356.293 93.9813 355.956 93.644C355.649 93.3373 355.496 92.8007 355.496 92.034C355.496 90.93 355.849 89.458 356.554 87.618L357.06 86.1C358.593 81.6227 359.59 79.0467 360.05 78.372C360.203 78.004 360.28 77.6207 360.28 77.222C360.28 77.0687 360.357 76.8387 360.51 76.532C360.663 76.2253 360.786 75.98 360.878 75.796C361.246 75.1213 361.43 74.6153 361.43 74.278C361.43 74.1553 361.614 73.542 361.982 72.438C362.35 71.3033 362.718 70.4447 363.086 69.862C363.147 69.7393 363.347 69.2793 363.684 68.482C364.052 67.654 364.236 67.148 364.236 66.964C364.236 66.9027 363.868 66.872 363.132 66.872C362.12 66.872 360.847 66.918 359.314 67.01C357.811 67.102 356.83 67.2093 356.37 67.332C355.726 67.4853 355.343 67.5467 355.22 67.516C355.097 67.4547 354.944 67.286 354.76 67.01C354.607 66.7033 354.53 66.3967 354.53 66.09C354.53 65.6913 354.683 65.4153 354.99 65.262C355.481 64.986 355.925 64.802 356.324 64.71C356.753 64.618 357.305 64.5567 357.98 64.526C358.501 64.526 359.145 64.48 359.912 64.388C360.556 64.388 361.154 64.3573 361.706 64.296C362.289 64.204 362.626 64.158 362.718 64.158C362.963 64.158 363.27 64.112 363.638 64.02C364.497 63.8667 365.079 63.79 365.386 63.79C365.815 63.79 366.245 63.744 366.674 63.652C367.165 63.5907 367.487 63.56 367.64 63.56H370.492C370.891 63.56 371.443 63.4987 372.148 63.376C372.853 63.2533 373.482 63.1307 374.034 63.008C375.107 62.7933 375.905 62.686 376.426 62.686C377.714 62.686 378.542 63.1767 378.91 64.158C378.971 64.5873 378.787 64.94 378.358 65.216C377.929 65.4613 377.193 65.6607 376.15 65.814C375.138 65.9367 373.666 66.0593 371.734 66.182C371.458 66.2127 370.921 66.2587 370.124 66.32C369.357 66.3813 368.851 66.458 368.606 66.55C368.391 66.642 368.284 66.78 368.284 66.964C368.284 67.148 368.192 67.332 368.008 67.516C367.855 67.6693 367.747 67.792 367.686 67.884C367.441 67.976 366.996 68.85 366.352 70.506C365.739 72.162 365.432 73.1587 365.432 73.496C365.401 73.5573 365.34 73.68 365.248 73.864C365.156 74.048 365.11 74.186 365.11 74.278C364.895 74.83 364.558 75.5353 364.098 76.394C363.178 78.8167 362.595 80.3193 362.35 80.902L361.844 82.144C361.169 84.3827 360.679 85.9007 360.372 86.698C360.28 86.8513 360.157 86.9893 360.004 87.112C359.881 87.2347 359.82 87.4033 359.82 87.618C359.82 87.7713 359.483 88.8907 358.808 90.976C358.164 93.0307 357.796 94.0733 357.704 94.104ZM379.738 84.214C379.278 84.1833 378.926 83.9993 378.68 83.662C378.466 83.3247 378.358 82.9413 378.358 82.512C378.358 82.1747 378.404 81.8373 378.496 81.5C378.496 81.3467 378.634 80.9633 378.91 80.35C379.156 79.798 379.309 79.4147 379.37 79.2C379.708 78.6173 380.214 77.9427 380.888 77.176C381.594 76.3787 382.207 75.796 382.728 75.428L383.51 74.876C383.51 74.7533 383.725 74.5233 384.154 74.186C384.584 73.8487 384.952 73.6033 385.258 73.45C385.381 73.358 385.596 73.2047 385.902 72.99C386.209 72.7753 386.5 72.5453 386.776 72.3C387.451 71.6253 387.957 70.9967 388.294 70.414C388.632 69.8007 388.877 69.1873 389.03 68.574C389.184 67.9607 389.414 66.918 389.72 65.446L389.766 63.79C389.766 63.3913 389.72 63.0847 389.628 62.87C389.567 62.6553 389.414 62.456 389.168 62.272C388.8 62.088 388.402 61.996 387.972 61.996C386.93 61.996 385.826 62.41 384.66 63.238C383.495 64.0353 382.636 65.0473 382.084 66.274C381.87 66.826 381.762 67.2247 381.762 67.47C381.762 67.6233 381.808 67.8227 381.9 68.068C381.9 68.252 381.931 68.482 381.992 68.758C382.084 69.034 382.13 69.218 382.13 69.31C382.038 69.3407 381.778 69.356 381.348 69.356C380.52 69.356 379.953 69.2793 379.646 69.126C379.616 69.0647 379.554 68.9727 379.462 68.85C379.37 68.6967 379.278 68.5433 379.186 68.39C379.064 68.206 378.987 68.022 378.956 67.838C378.926 67.654 378.91 67.47 378.91 67.286C378.941 67.0713 378.956 66.8567 378.956 66.642C379.324 65.538 379.861 64.4647 380.566 63.422C381.302 62.3793 382.207 61.582 383.28 61.03C383.894 60.754 384.4 60.524 384.798 60.34C385.197 60.1253 385.458 59.9873 385.58 59.926C385.642 59.926 385.795 59.926 386.04 59.926C386.286 59.8953 386.638 59.8493 387.098 59.788H387.328H387.604C387.911 59.788 388.064 59.8493 388.064 59.972H389.398C389.981 60.1253 390.564 60.3707 391.146 60.708C391.76 61.0453 392.22 61.398 392.526 61.766C392.71 62.3487 392.802 63.054 392.802 63.882C392.802 65.4153 392.511 67.0867 391.928 68.896C391.346 70.6747 390.594 72.07 389.674 73.082L388.662 74.002C387.16 75.3513 386.209 76.256 385.81 76.716C384.829 77.268 383.924 78.1113 383.096 79.246C382.299 80.35 381.686 81.5153 381.256 82.742C381.072 83.1713 380.904 83.5087 380.75 83.754C380.628 83.9687 380.505 84.1067 380.382 84.168C380.26 84.1987 380.045 84.214 379.738 84.214ZM378.45 92.54C377.868 92.7547 377.423 92.862 377.116 92.862C376.718 92.862 376.258 92.678 375.736 92.31C375.307 91.8807 375.092 91.4513 375.092 91.022C375.092 90.3473 375.614 89.6573 376.656 88.952C377.27 88.584 377.714 88.4 377.99 88.4C378.144 88.4 378.512 88.5073 379.094 88.722C379.922 89.2127 380.336 89.78 380.336 90.424C380.336 90.792 380.168 91.16 379.83 91.528C379.524 91.896 379.064 92.2333 378.45 92.54Z" fill="#6C98A3"/>
</svg>
