<svg width="208" height="187" viewBox="0 0 208 187" fill="none" xmlns="http://www.w3.org/2000/svg">
<rect x="10" y="10" width="187.919" height="167" fill="#BED8DE" stroke="#A7C4CB" stroke-width="20"/>
<rect x="187.919" y="96.2095" width="48.0577" height="167.919" transform="rotate(90 187.919 96.2095)" fill="#A7C4CB"/>
<path d="M58.7823 82.2692C58.4023 82.2692 58.0349 82.1806 57.6803 82.0032C57.3509 81.8006 57.1863 81.5092 57.1863 81.1292V56.0492C57.1863 55.4666 57.3509 55.0612 57.6803 54.8332C58.0096 54.6052 58.3769 54.4912 58.7823 54.4912C59.3649 54.4912 59.8463 54.6686 60.2263 55.0232C60.6063 55.3526 60.9736 55.8466 61.3283 56.5052L67.3323 67.9432L73.3363 56.5052C73.7163 55.8466 74.0963 55.3526 74.4763 55.0232C74.8563 54.6686 75.3249 54.4912 75.8823 54.4912C76.3129 54.4912 76.6803 54.6052 76.9843 54.8332C77.3136 55.0612 77.4783 55.4666 77.4783 56.0492V81.1292C77.4783 81.5092 77.3136 81.8006 76.9843 82.0032C76.6549 82.1806 76.2876 82.2692 75.8823 82.2692C75.4769 82.2692 75.1096 82.1806 74.7803 82.0032C74.4509 81.8006 74.2863 81.5092 74.2863 81.1292V61.1792L68.5103 71.9712C68.1809 72.5539 67.7756 72.8452 67.2943 72.8452C67.0916 72.8452 66.8889 72.7819 66.6863 72.6552C66.4836 72.5286 66.2936 72.3006 66.1163 71.9712L60.3783 61.0272V81.1292C60.3783 81.5092 60.2136 81.8006 59.8843 82.0032C59.5549 82.1806 59.1876 82.2692 58.7823 82.2692ZM90.8071 82.4972C89.2617 82.4972 87.8684 82.2312 86.6271 81.6992C85.4111 81.1419 84.4357 80.2552 83.7011 79.0392C82.9917 77.8232 82.6371 76.2146 82.6371 74.2132V62.7752C82.6371 60.7739 82.9917 59.1652 83.7011 57.9492C84.4357 56.7332 85.4111 55.8592 86.6271 55.3272C87.8684 54.7699 89.2617 54.4912 90.8071 54.4912C92.3524 54.4912 93.7457 54.7699 94.9871 55.3272C96.2284 55.8592 97.2037 56.7332 97.9131 57.9492C98.6477 59.1652 99.0151 60.7739 99.0151 62.7752V74.2132C99.0151 76.2146 98.6477 77.8232 97.9131 79.0392C97.2037 80.2552 96.2284 81.1419 94.9871 81.6992C93.7457 82.2312 92.3524 82.4972 90.8071 82.4972ZM90.8071 79.6092C92.3777 79.6092 93.6064 79.1786 94.4931 78.3172C95.3797 77.4306 95.8231 76.0626 95.8231 74.2132V62.7752C95.8231 60.9259 95.3797 59.5706 94.4931 58.7092C93.6064 57.8226 92.3777 57.3792 90.8071 57.3792C89.2364 57.3792 88.0077 57.8226 87.1211 58.7092C86.2597 59.5706 85.8291 60.9259 85.8291 62.7752V74.2132C85.8291 76.0626 86.2597 77.4306 87.1211 78.3172C88.0077 79.1786 89.2364 79.6092 90.8071 79.6092Z" fill="white"/>
<path d="M63.7988 135.631C62.1521 135.631 60.7208 135.39 59.5048 134.909C58.3141 134.402 57.3894 133.82 56.7308 133.161C56.0721 132.477 55.7428 131.869 55.7428 131.337C55.7428 130.957 55.8821 130.577 56.1608 130.197C56.4648 129.792 56.7941 129.589 57.1488 129.589C57.4528 129.589 57.7441 129.741 58.0228 130.045C58.3268 130.349 58.6941 130.704 59.1248 131.109C59.5808 131.514 60.1634 131.882 60.8728 132.211C61.5821 132.515 62.5068 132.667 63.6468 132.667C65.2428 132.667 66.5221 132.274 67.4848 131.489C68.4474 130.704 68.9288 129.526 68.9288 127.955C68.9288 126.866 68.7008 125.979 68.2448 125.295C67.7888 124.586 67.1808 124.016 66.4208 123.585C65.6861 123.129 64.8754 122.724 63.9888 122.369C63.1021 122.014 62.2154 121.66 61.3288 121.305C60.4421 120.925 59.6188 120.469 58.8588 119.937C58.1241 119.38 57.5288 118.67 57.0728 117.809C56.6421 116.948 56.4268 115.858 56.4268 114.541C56.4268 113.148 56.6801 111.995 57.1868 111.083C57.6934 110.171 58.3648 109.449 59.2008 108.917C60.0368 108.385 60.9361 108.018 61.8988 107.815C62.8868 107.587 63.8494 107.473 64.7868 107.473C65.4708 107.473 66.1928 107.524 66.9528 107.625C67.7128 107.726 68.4348 107.878 69.1188 108.081C69.8028 108.284 70.3601 108.55 70.7908 108.879C71.2214 109.183 71.4368 109.55 71.4368 109.981C71.4368 110.285 71.3101 110.652 71.0568 111.083C70.8288 111.514 70.4994 111.729 70.0688 111.729C69.7901 111.729 69.4481 111.615 69.0428 111.387C68.6374 111.134 68.0928 110.893 67.4088 110.665C66.7501 110.412 65.8761 110.285 64.7868 110.285C63.8494 110.285 62.9881 110.412 62.2028 110.665C61.4174 110.918 60.7841 111.336 60.3028 111.919C59.8468 112.502 59.6188 113.274 59.6188 114.237C59.6188 115.174 59.8341 115.934 60.2648 116.517C60.7208 117.074 61.3161 117.543 62.0508 117.923C62.8108 118.303 63.6341 118.658 64.5208 118.987C65.4074 119.291 66.2941 119.646 67.1808 120.051C68.0674 120.456 68.8781 120.976 69.6128 121.609C70.3728 122.217 70.9808 123.015 71.4368 124.003C71.8928 124.966 72.1208 126.182 72.1208 127.651C72.1208 129.475 71.7534 130.97 71.0188 132.135C70.3094 133.3 69.3341 134.174 68.0928 134.757C66.8514 135.34 65.4201 135.631 63.7988 135.631ZM81.619 135.327C81.1883 135.327 80.7577 135.2 80.327 134.947C79.9217 134.694 79.719 134.377 79.719 133.997C79.719 133.896 79.7317 133.794 79.757 133.693L87.547 108.423C87.6483 108.043 87.889 107.764 88.269 107.587C88.649 107.41 89.0543 107.321 89.485 107.321C89.941 107.321 90.359 107.422 90.739 107.625C91.119 107.802 91.3597 108.068 91.461 108.423L99.213 133.693C99.2637 133.794 99.289 133.883 99.289 133.959C99.289 134.339 99.061 134.668 98.605 134.947C98.1743 135.2 97.7437 135.327 97.313 135.327C96.705 135.327 96.325 135.086 96.173 134.605L94.463 128.943H84.469L82.835 134.605C82.7337 134.858 82.5817 135.048 82.379 135.175C82.1763 135.276 81.923 135.327 81.619 135.327ZM85.229 126.321H93.741L89.485 112.033L85.229 126.321Z" fill="white"/>
<path d="M117.017 135.327C116.637 135.327 116.27 135.238 115.915 135.061C115.586 134.858 115.421 134.567 115.421 134.187V108.651C115.421 108.271 115.586 107.992 115.915 107.815C116.244 107.638 116.612 107.549 117.017 107.549C117.6 107.549 118.068 107.726 118.423 108.081C118.778 108.41 119.132 108.904 119.487 109.563L128.911 128.069V108.651C128.911 108.271 129.076 107.992 129.405 107.815C129.76 107.638 130.127 107.549 130.507 107.549C130.912 107.549 131.28 107.638 131.609 107.815C131.938 107.992 132.103 108.271 132.103 108.651V134.187C132.103 134.567 131.938 134.858 131.609 135.061C131.28 135.238 130.912 135.327 130.507 135.327C130.102 135.327 129.722 135.188 129.367 134.909C129.038 134.63 128.759 134.288 128.531 133.883L118.613 114.769V134.187C118.613 134.567 118.448 134.858 118.119 135.061C117.79 135.238 117.422 135.327 117.017 135.327ZM137.386 135.327C136.956 135.327 136.525 135.2 136.094 134.947C135.689 134.694 135.486 134.377 135.486 133.997C135.486 133.896 135.499 133.794 135.524 133.693L143.314 108.423C143.416 108.043 143.656 107.764 144.036 107.587C144.416 107.41 144.822 107.321 145.252 107.321C145.708 107.321 146.126 107.422 146.506 107.625C146.886 107.802 147.127 108.068 147.228 108.423L154.98 133.693C155.031 133.794 155.056 133.883 155.056 133.959C155.056 134.339 154.828 134.668 154.372 134.947C153.942 135.2 153.511 135.327 153.08 135.327C152.472 135.327 152.092 135.086 151.94 134.605L150.23 128.943H140.236L138.602 134.605C138.501 134.858 138.349 135.048 138.146 135.175C137.944 135.276 137.69 135.327 137.386 135.327ZM140.996 126.321H149.508L145.252 112.033L140.996 126.321Z" fill="white"/>
<path d="M117.996 82.2692C117.641 82.2692 117.312 82.1806 117.008 82.0032C116.704 81.8006 116.552 81.5092 116.552 81.1292V55.5932C116.552 55.2132 116.716 54.9346 117.046 54.7572C117.4 54.5799 117.768 54.4912 118.148 54.4912C118.553 54.4912 118.92 54.5799 119.25 54.7572C119.579 54.9346 119.744 55.2132 119.744 55.5932V79.3812H130.156C130.51 79.3812 130.764 79.5332 130.916 79.8372C131.093 80.1412 131.182 80.4706 131.182 80.8252C131.182 81.1799 131.093 81.5092 130.916 81.8132C130.764 82.1172 130.51 82.2692 130.156 82.2692H117.996ZM144.093 82.2692C143.713 82.2692 143.346 82.1806 142.991 82.0032C142.662 81.8006 142.497 81.5092 142.497 81.1292V55.5932C142.497 55.2132 142.662 54.9346 142.991 54.7572C143.346 54.5799 143.713 54.4912 144.093 54.4912C144.498 54.4912 144.866 54.5799 145.195 54.7572C145.524 54.9346 145.689 55.2132 145.689 55.5932V81.1292C145.689 81.5092 145.524 81.8006 145.195 82.0032C144.866 82.1806 144.498 82.2692 144.093 82.2692Z" fill="white"/>
</svg>
