<svg width="38" height="39" viewBox="0 0 38 39" fill="none" xmlns="http://www.w3.org/2000/svg">
<path d="M19 0C8.50819 0 0 8.73209 0 19.5C0 30.2679 8.50819 39 19 39C29.4918 39 38 30.2679 38 19.5C38 8.73209 29.4918 0 19 0ZM27.6752 15.204C27.6836 15.3959 27.6877 15.5888 27.6877 15.7825C27.6877 21.6968 23.3012 28.5168 15.2795 28.5171H15.2798H15.2795C12.8167 28.5171 10.5249 27.7763 8.59488 26.5066C8.93611 26.548 9.28343 26.5685 9.6351 26.5685C11.6784 26.5685 13.5588 25.8532 15.0516 24.6526C13.1425 24.6163 11.5329 23.3223 10.9774 21.5438C11.2433 21.5962 11.5167 21.6248 11.797 21.6248C12.1951 21.6248 12.5807 21.5697 12.9471 21.4671C10.9516 21.0571 9.44839 19.2471 9.44839 17.0798C9.44839 17.0595 9.44839 17.0414 9.44897 17.0226C10.0366 17.358 10.7087 17.5597 11.4242 17.5823C10.2532 16.7804 9.48347 15.4096 9.48347 13.8567C9.48347 13.0367 9.69946 12.2684 10.074 11.607C12.2246 14.3153 15.4387 16.0964 19.0632 16.2835C18.9884 15.9556 18.9498 15.614 18.9498 15.2629C18.9498 12.7921 20.903 10.7875 23.3114 10.7875C24.5658 10.7875 25.6988 11.3318 26.4946 12.2018C27.4882 12.0006 28.4211 11.6281 29.2639 11.1154C28.9378 12.1601 28.2466 13.0367 27.3461 13.591C28.2283 13.4827 29.0691 13.2426 29.8504 12.8861C29.2668 13.7838 28.5267 14.5723 27.6752 15.204V15.204Z" fill="#634243"/>
</svg>
