<svg width="38" height="39" viewBox="0 0 38 39" fill="none" xmlns="http://www.w3.org/2000/svg">
<path d="M22.0635 38.7461C21.9052 38.7726 21.7464 38.797 21.5869 38.8193C21.7464 38.797 21.9052 38.7726 22.0635 38.7461Z" fill="black"/>
<path d="M22.4438 38.6797C22.3681 38.694 22.2925 38.7071 22.2168 38.7205C22.2925 38.7071 22.3681 38.694 22.4438 38.6797Z" fill="black"/>
<path d="M21.1627 38.8735C20.9774 38.895 20.791 38.914 20.604 38.9301C20.791 38.914 20.9774 38.895 21.1627 38.8735Z" fill="black"/>
<path d="M21.5276 38.8276C21.4386 38.8398 21.3491 38.8511 21.2598 38.8619C21.3491 38.8511 21.4386 38.8398 21.5276 38.8276Z" fill="black"/>
<path d="M22.9609 38.5742C22.8942 38.5888 22.8272 38.6034 22.7603 38.6174C22.8272 38.6034 22.8942 38.5888 22.9609 38.5742Z" fill="black"/>
<path d="M24.2448 38.2471C24.1909 38.2628 24.1369 38.2777 24.083 38.2932C24.1369 38.2777 24.1909 38.2628 24.2448 38.2471Z" fill="black"/>
<path d="M23.8564 38.356C23.7979 38.3717 23.739 38.3878 23.6802 38.403C23.739 38.3878 23.7979 38.372 23.8564 38.356Z" fill="black"/>
<path d="M23.3484 38.4863C23.2864 38.5012 23.2238 38.5152 23.1611 38.5295C23.2238 38.5152 23.2864 38.5012 23.3484 38.4863Z" fill="black"/>
<path d="M20.5977 38.9307C20.4977 38.9393 20.3977 38.947 20.2974 38.9539C20.3977 38.947 20.4977 38.9393 20.5977 38.9307Z" fill="black"/>
<path d="M38 19.5C38 8.73209 29.4918 0 19 0C8.50819 0 0 8.73209 0 19.5C0 30.2679 8.50819 39 19 39C19.1116 39 19.2227 38.9976 19.334 38.9955V23.8156H15.252V18.9332H19.334V15.3403C19.334 11.1735 21.8125 8.90556 25.4341 8.90556C27.1684 8.90556 28.6592 9.03827 29.0938 9.09748V13.4524H26.5964C24.6261 13.4524 24.2446 14.4134 24.2446 15.8235V18.9332H28.9557L28.3417 23.8156H24.2446V38.2466C32.1863 35.91 38 28.4008 38 19.5Z" fill="#634243"/>
<path d="M20.2552 38.9565C20.0574 38.9696 19.8588 38.98 19.6597 38.9869C19.8588 38.98 20.0574 38.9696 20.2552 38.9565Z" fill="black"/>
<path d="M19.6499 38.9873C19.545 38.9909 19.4397 38.9936 19.3345 38.9953C19.4397 38.9936 19.545 38.9909 19.6499 38.9873Z" fill="black"/>
</svg>
