<svg width="60" height="60" viewBox="0 0 60 60" fill="none" xmlns="http://www.w3.org/2000/svg">
<g clip-path="url(#clip0)">
<path d="M5.99318 58.3991C6.31913 58.5894 6.73151 58.6691 7.23108 58.5591C15.3105 56.7886 23.2935 53.312 31.2705 51.1344C31.3683 51.1966 31.4686 51.2561 31.5858 51.306C38.4486 54.1801 45.5024 57.8148 52.6351 59.9145C52.9989 60.0214 53.3392 60.0201 53.6532 59.9547C54.9207 59.9333 56.164 58.8121 55.4605 57.3498C46.6313 39.0052 38.6856 20.2665 31.4389 1.24269C31.1346 0.44266 30.5152 0.0946558 29.8663 0.0648269C29.0493 -0.146525 28.1719 0.140674 27.8405 1.19641C21.9654 19.9238 15.9442 38.9365 4.70302 55.2487C3.76379 56.6121 4.78141 58.1216 5.99318 58.3991ZM50.0634 55.0759C44.3373 53.3062 38.674 50.038 33.1383 47.7199C33.0081 47.6648 32.8806 47.6292 32.7564 47.6027C32.6981 36.2831 32.737 26.2884 32.6172 14.9688C38.0311 28.509 43.8226 41.8921 50.0634 55.0759ZM28.6776 11.3929C28.8601 23.9584 28.8135 35.1997 28.8766 47.7666C22.6909 49.4502 16.4978 52.4221 10.2552 53.876C18.531 40.7264 23.9027 26.1437 28.6776 11.3929Z" fill="#6C98A3"/>
</g>
<defs>
<clipPath id="clip0">
<rect width="60" height="60" fill="white"/>
</clipPath>
</defs>
</svg>
